<svg id="Layer_1" data-name="Layer 1" xmlns="http://www.w3.org/2000/svg" viewBox="0 0 24 24"><title>Artboard 5</title><path d="M5.57,17.55a1.73,1.73,0,0,0-1.51.27l-1,1.67A1.46,1.46,0,1,0,5.62,21l1.44-2.49C7.16,18.28,6,17.74,5.57,17.55Z"/><path d="M21.83,14.34H18.32l-4-7a4.39,4.39,0,0,0-.89,1.28,4.11,4.11,0,0,0-.11,2.91l1.6,2.79,1.69,2.93L18.73,21a1.48,1.48,0,0,0,2.56-1.48L20,17.28h1.81a1.47,1.47,0,1,0,0-2.94Z"/><path d="M13.9,14.34H9.44L15.3,4.18a1.45,1.45,0,1,0-2.52-1.45l-.58,1-.57-1A1.48,1.48,0,0,0,9.06,4.22l1.43,2.47L6.07,14.34H2.47a1.47,1.47,0,1,0,0,2.93H15.1a1.27,1.27,0,0,0,.27-.9A2.54,2.54,0,0,0,13.9,14.34Z"/></svg>