<svg id="layer_1" data-name="layer 1" xmlns="http://www.w3.org/2000/svg" viewBox="0 0 271.53 18"><path d="M199.71,6.65a2.59,2.59,0,1,0,0-5.17H187V16.76h5.17V10.31l6.45,6.45h3.66V13.1l-6.45-6.45Z" style="fill:#05cd82"/><path d="M210.81.65a8.47,8.47,0,1,0,8.52,8.47A8.5,8.5,0,0,0,210.81.65Zm0,12.09a3.52,3.52,0,0,1-3.41-3.62,3.42,3.42,0,1,1,6.83,0A3.52,3.52,0,0,1,210.81,12.74Z" style="fill:#05cd82"/><polygon points="177.23 9.8 173.81 1.48 167.89 1.48 174.8 16.76 179.5 16.76 186.58 1.48 180.66 1.48 177.23 9.8" style="fill:#05cd82"/><path d="M228.52.65A8.47,8.47,0,1,0,237,9.12,8.5,8.5,0,0,0,228.52.65Zm0,12.09a3.52,3.52,0,0,1-3.42-3.62,3.42,3.42,0,1,1,6.83,0A3.52,3.52,0,0,1,228.52,12.74Z" style="fill:#05cd82"/><path d="M271.12,7.62H263V11h3.37a3.23,3.23,0,0,1-3,1.72,3.5,3.5,0,0,1-2.58-1.09,3.59,3.59,0,0,1-1.06-2.6,3.65,3.65,0,0,1,1-2.59,3.26,3.26,0,0,1,2.46-1.08,3.31,3.31,0,0,1,1.68.45,3.18,3.18,0,0,1,.77.58l4.18-2.68a8.46,8.46,0,0,0-6.62-3.1,8.08,8.08,0,0,0-6,2.51,8.19,8.19,0,0,0-2.47,6,8.49,8.49,0,0,0,8.51,8.47,8.24,8.24,0,0,0,8-8.47A8.21,8.21,0,0,0,271.12,7.62Z" style="fill:#05cd82"/><polygon points="248.69 8.8 242.96 1.48 237.94 1.48 237.94 16.76 243.12 16.76 243.12 9.44 248.85 16.76 253.86 16.76 253.86 1.48 248.69 1.48 248.69 8.8" style="fill:#05cd82"/><path d="M106.37,6.3c0-3.17-2.19-4.77-5.45-4.77H94.58V16.67h3.19v-5.6h2.47l3.26,5.6h3.61l-3.65-6A4.29,4.29,0,0,0,106.37,6.3ZM101,8.36H97.75V4.42H101c1.38,0,2.34.59,2.34,2S102.37,8.36,101,8.36Z" style="fill:#0071ce"/><polygon points="20.72 10.05 26.95 10.05 26.95 7.11 20.72 7.11 20.72 4.5 28.2 4.5 28.2 1.53 17.69 1.53 17.69 16.67 28.52 16.67 28.52 13.71 20.72 13.71 20.72 10.05" style="fill:#0071ce"/><polygon points="53.94 7.33 47.73 7.33 47.73 1.53 44.71 1.53 44.71 16.67 47.73 16.67 47.73 10.31 53.94 10.31 53.94 16.67 56.97 16.67 56.97 1.53 53.94 1.53 53.94 7.33" style="fill:#0071ce"/><path d="M85.36,1.17c-4,0-6.81,3-6.81,8S81.3,17,85.32,17s6.78-3,6.78-7.94S89.36,1.17,85.36,1.17Zm0,12.8c-2.15,0-3.65-1.78-3.65-4.89s1.43-4.85,3.58-4.85S88.94,6,88.94,9.12,87.51,14,85.36,14Z" style="fill:#0071ce"/><polygon points="112.64 10.05 118.87 10.05 118.87 7.11 112.64 7.11 112.64 4.5 120.12 4.5 120.12 1.53 109.61 1.53 109.61 16.67 120.45 16.67 120.45 13.71 112.64 13.71 112.64 10.05" style="fill:#0071ce"/><path d="M130.53,1.53h-2.94L121.8,16.67H125l1.19-3.37h5.54L133,16.67h3.33Zm-3.26,8.89,1-2.75c.31-.88.61-1.79.76-2.35.15.56.45,1.47.76,2.35l1,2.75Z" style="fill:#0071ce"/><path d="M7.35,8.18,3.2,1.53H.25V16.67h3V10.6c0-1.25,0-2.42,0-3.51l0,0C4,8.14,4.55,9.25,5.25,10.31L7,13h.54l1.76-2.7c.69-1.06,1.43-2.17,2.08-3.24l0,0c0,1.09,0,2.26,0,3.51v6.07h3V1.53H11.5Z" style="fill:#0071ce"/><path d="M37.13,7.5c-2.36-.55-3-1.15-3-2.09,0-.66.54-1.34,2.13-1.34A4.56,4.56,0,0,1,39.65,5.6L41.8,3.52a7.14,7.14,0,0,0-5.43-2.35C33.43,1.17,31,2.83,31,5.54c0,2.94,1.92,4.11,4.67,4.75S39,11.53,39,12.49c0,1.13-.83,1.62-2.6,1.62a4.8,4.8,0,0,1-3.81-1.71l-2.15,1.92A6.91,6.91,0,0,0,36.26,17c4.06,0,5.85-1.91,5.85-4.74C42.11,9,39.49,8.05,37.13,7.5Z" style="fill:#0071ce"/><polygon points="78.14 1.53 74.1 1.53 69.07 7.89 69.07 1.53 66.04 1.53 66.04 16.65 69.07 16.65 69.07 9.82 74.48 16.65 74.48 16.65 78.49 16.65 72.23 8.74 78.14 1.53" style="fill:#0071ce"/><rect x="152.04" y="1.53" width="1.14" height="15.22" style="fill:#3e3a39"/></svg>
