<svg id="Layer_1" data-name="Layer 1" xmlns="http://www.w3.org/2000/svg" viewBox="0 0 24 24"><defs><style>.cls-1{fill:#191313;fill-rule:evenodd;}</style></defs><title>Artboard 2</title><path class="cls-1" d="M12,0A12,12,0,0,0,8.21,23.39c.6.11.82-.26.82-.58s0-1,0-2c-3.34.72-4-1.61-4-1.61A3.21,3.21,0,0,0,3.64,17.4c-1.09-.74.08-.73.08-.73a2.55,2.55,0,0,1,1.84,1.24,2.56,2.56,0,0,0,3.49,1,2.59,2.59,0,0,1,.76-1.61C7.15,17,4.34,16,4.34,11.37A4.63,4.63,0,0,1,5.58,8.15,4.28,4.28,0,0,1,5.7,5s1-.33,3.3,1.23a11.18,11.18,0,0,1,6,0C17.3,4.65,18.3,5,18.3,5a4.28,4.28,0,0,1,.12,3.17,4.63,4.63,0,0,1,1.23,3.22c0,4.61-2.8,5.63-5.47,5.92A2.88,2.88,0,0,1,15,19.52c0,1.6,0,2.89,0,3.29s.21.69.82.58A12,12,0,0,0,12,0Z"/></svg>