<svg id="Layer_1" data-name="Layer 1" xmlns="http://www.w3.org/2000/svg" viewBox="0 0 400 225"><path d="M246.11,25.32a3.66,3.66,0,0,0,3.66-3.66V3.71H228.15V11h9.12l-9.12,9.13v5.18h5.17l9.13-9.13v5.45a3.66,3.66,0,0,0,3.66,3.66" fill="#fff"/><path d="M61.13,129.11l-1,6.25s3.77,3,6,2.38c1.85-.53.58-2.94.58-2.94s-1-3.34-.68-5.09S61.13,129.11,61.13,129.11Z" fill="#fff"/><path d="M65.45,138.18c-2.32,0-5.38-2.44-5.53-2.55l-.15-.13,1-6.68.24,0c.66-.15,4-.83,5,.1a1,1,0,0,1,.28.9c-.29,1.65.66,4.9.67,4.93h0a3.38,3.38,0,0,1,.29,2.45,1.62,1.62,0,0,1-1.11.93A2.66,2.66,0,0,1,65.45,138.18Zm-4.93-3c1.13.87,3.91,2.66,5.49,2.2a1,1,0,0,0,.66-.53,2.76,2.76,0,0,0-.3-1.92c-.07-.2-1-3.5-.71-5.3,0-.16,0-.23-.08-.28-.5-.47-2.64-.28-4.14,0Z"/><path d="M61.84,131.62a15.3,15.3,0,0,0,4.26,1.2,8.16,8.16,0,0,1-.1-2.48c.14-.81-.89-1-2-1-1.5.13-2.84.36-2.84.36l-.19,1.2A3.28,3.28,0,0,0,61.84,131.62Z" fill="#231815"/><path d="M66.22,123.18c-.08-.16,0,0-.08-.16l.39-1.25-2.81-1.28c-.08-.08-.11-.86-.2-.93a3.53,3.53,0,0,0-1.72-.89c-3.58-.91-5.42,3.23-5.42,3.23-.16,0,1.49,7,4,8.18s6.34.58,7-1.3C67.86,127.72,67.32,125.36,66.22,123.18Z" fill="#fff"/><path d="M63.34,131.05a7.4,7.4,0,0,1-3.08-.65c-2.66-1.26-4.33-8.11-4.23-8.57l.06-.27h.07c.44-.85,2.38-4.08,5.72-3.23a3.93,3.93,0,0,1,1.87,1c.14.11.17.29.22.68a1.64,1.64,0,0,0,0,.25L67,121.57l-.44,1.4,0,.08v0c1.15,2.31,1.66,4.69,1.23,5.82a3.12,3.12,0,0,1-1.87,1.68A7,7,0,0,1,63.34,131.05ZM56.72,122c.09.79,1.65,6.74,3.84,7.78a6.87,6.87,0,0,0,5.1.16,2.48,2.48,0,0,0,1.47-1.28c.36-.93-.17-3.22-1.23-5.31h0s0-.07,0-.11l-.06-.1v-.21l.31-1-2.63-1.22c-.12-.12-.15-.29-.2-.66,0-.09,0-.24-.05-.31a3.18,3.18,0,0,0-1.52-.76C58.67,118.25,56.94,121.54,56.72,122Zm9.81,1.16-.08.17A.37.37,0,0,0,66.53,123.15Zm-.17-.06-.14.09.16-.08Zm.15-.1V123h0S66.52,123,66.51,123Z"/><path d="M180.35,126.21v-.4c1.05,0,2.11,0,3.14-.15l0,.41C182.48,126.16,181.41,126.21,180.35,126.21Zm-3.17-.14c-1.06-.1-2.12-.24-3.15-.43l.07-.4c1,.19,2.07.33,3.11.43Zm9.5-.44-.07-.4c1-.19,2-.43,3.06-.72l.11.39C188.76,125.19,187.72,125.44,186.68,125.63Zm-15.75-.72a29.71,29.71,0,0,1-3-1l.15-.37c1,.37,2,.71,3,1Zm21.86-1-.14-.38c1-.38,1.94-.8,2.87-1.27l.18.36C194.76,123.07,193.78,123.51,192.79,123.89ZM165,122.62c-.95-.47-1.88-1-2.78-1.55l.21-.34c.89.55,1.82,1.06,2.75,1.53Zm33.48-1.57-.21-.34c.88-.55,1.75-1.15,2.59-1.78l.24.32C200.26,119.89,199.38,120.49,198.48,121.05Zm-38.88-1.78a31.78,31.78,0,0,1-2.45-2l.27-.3c.77.7,1.59,1.38,2.42,2Zm44-2-.28-.3c.78-.71,1.52-1.46,2.23-2.23l.3.28C205.09,115.75,204.33,116.5,203.55,117.22ZM154.9,115c-.72-.78-1.4-1.6-2-2.44l.32-.25a31.19,31.19,0,0,0,2,2.42Zm52.93-2.47-.32-.25c.63-.83,1.23-1.7,1.78-2.59l.34.22C209.07,110.79,208.47,111.68,207.83,112.52Zm-56.77-2.59c-.56-.9-1.08-1.83-1.55-2.78l.36-.18c.47.93,1,1.86,1.53,2.74Zm60.12-2.81-.36-.18c.46-.94.89-1.91,1.27-2.88l.38.15C212.09,105.19,211.65,106.17,211.18,107.12Zm-63-2.88c-.39-1-.73-2-1-3l.39-.11c.29,1,.63,2,1,3Zm65.26-3-.39-.11c.28-1,.52-2,.71-3.06l.4.07C214,99.13,213.77,100.17,213.48,101.19Zm-67-3.06c-.19-1-.34-2.09-.44-3.15l.41,0c.1,1,.24,2.09.43,3.12Zm68.17-3.19-.41,0c.1-1,.15-2.09.15-3.14v-.07h.4v.07C214.78,92.82,214.73,93.89,214.64,94.94ZM146.29,91.8h-.4v0c0-1,0-2.1.14-3.13l.4,0c-.09,1-.14,2.07-.14,3.1Zm67.94-3.25c-.1-1-.25-2.09-.44-3.12l.4-.07c.19,1,.34,2.09.44,3.15Zm-67.37-3-.4-.07c.19-1,.43-2.09.72-3.1l.39.11C147.29,83.49,147.05,84.52,146.86,85.55Zm66.2-3.18c-.28-1-.62-2-1-3l.38-.15c.38,1,.72,2,1,3Zm-64.49-2.86-.38-.15c.38-1,.81-2,1.28-2.91l.36.18C149.37,77.56,148.94,78.53,148.57,79.51Zm62.21-3c-.47-.93-1-1.85-1.54-2.74l.35-.21c.56.9,1.08,1.83,1.56,2.77Zm-59.42-2.64-.34-.21c.55-.9,1.16-1.78,1.79-2.63l.33.25C152.51,72.12,151.91,73,151.36,73.88Zm56.1-2.69c-.63-.83-1.31-1.64-2-2.41l.3-.27c.71.78,1.4,1.6,2,2.44Zm-52.32-2.32-.3-.28c.72-.78,1.47-1.54,2.25-2.25l.27.3C156.59,67.34,155.85,68.09,155.14,68.87Zm48.08-2.31c-.77-.7-1.59-1.38-2.42-2l.24-.33c.84.64,1.67,1.32,2.45,2Zm-43.44-1.93-.25-.33c.85-.64,1.73-1.24,2.62-1.8l.22.34C161.48,63.4,160.61,64,159.78,64.63Zm38.42-1.85c-.89-.55-1.81-1.06-2.75-1.52l.18-.37c1,.47,1.88,1,2.78,1.55Zm-33.09-1.47-.18-.37c.94-.47,1.92-.9,2.91-1.29L168,60C167,60.41,166.05,60.84,165.11,61.31ZM192.57,60a30.59,30.59,0,0,0-3-1l.11-.39c1,.28,2,.62,3,1ZM171,59l-.11-.39c1-.29,2.06-.54,3.1-.73l.07.4C173,58.5,172,58.74,171,59Zm15.57-.74c-1-.19-2.07-.34-3.11-.43l0-.4c1.06.09,2.12.24,3.15.43Zm-9.39-.42,0-.4c1.05-.1,2.12-.15,3.17-.15v.4C179.23,57.72,178.17,57.77,177.14,57.87Z" fill="#fff"/><path d="M214,38.83l.14,1.58a8.75,8.75,0,0,0-.84,3.74,7.15,7.15,0,0,0,1.23,3.25c1.11.79,4.69-5,4.69-5l-.38-7.21Z" fill="#fff"/><path d="M214.81,47.82a.82.82,0,0,1-.44-.13A7.14,7.14,0,0,1,213,44.16a9.1,9.1,0,0,1,.84-3.81l-.16-1.68,5.53-4.17.42,8-.06.09c-.51.83-3.12,5-4.56,5.24Zm-.4-8.82.13,1.48,0,.09a8.85,8.85,0,0,0-.8,3.58,7.34,7.34,0,0,0,1.09,3c.95-.17,3-3,4.13-4.82l-.34-6.44Z"/><path d="M271.7,92.92v-.41c1.05,0,2.1-.05,3.14-.14l0,.4C273.83,92.87,272.76,92.92,271.7,92.92Zm-3.18-.15c-1-.09-2.11-.24-3.15-.43l.07-.4c1,.19,2.08.33,3.12.43Zm9.51-.44-.08-.4c1-.19,2.06-.43,3.06-.72l.11.4C280.11,91.89,279.07,92.14,278,92.33Zm-15.76-.71c-1-.29-2-.63-3-1l.14-.38c1,.38,2,.71,3,1Zm21.87-1-.15-.37c1-.38,1.94-.81,2.88-1.28l.18.37C286.1,89.78,285.12,90.21,284.14,90.59Zm-27.8-1.27c-.94-.47-1.88-1-2.77-1.54l.21-.35c.89.55,1.81,1.06,2.75,1.53Zm33.48-1.57-.21-.34c.89-.55,1.76-1.15,2.59-1.78l.25.32C291.6,86.59,290.72,87.2,289.82,87.75ZM250.94,86c-.84-.64-1.67-1.32-2.45-2l.28-.31a31.06,31.06,0,0,0,2.42,2Zm43.95-2.06-.27-.3c.77-.7,1.52-1.45,2.22-2.22l.3.27C296.43,82.45,295.67,83.21,294.89,83.92ZM246.24,81.7c-.71-.78-1.4-1.61-2-2.45l.32-.24c.63.83,1.31,1.64,2,2.41Zm-3.84-5.07c-.56-.9-1.08-1.83-1.55-2.77l.36-.19c.47.94,1,1.86,1.54,2.75Zm60.13-2.81-.37-.18a30.7,30.7,0,0,0,1.27-2.88l.38.15C303.43,71.9,303,72.87,302.53,73.82Zm-63-2.87c-.38-1-.72-2-1-3l.39-.11c.28,1,.62,2,1,3Zm65.26-3.06-.39-.11c.29-1,.53-2,.72-3.06l.4.08C305.35,65.84,305.11,66.88,304.82,67.89Zm-67-3c-.2-1-.34-2.1-.44-3.15l.4,0c.1,1,.25,2.09.44,3.11ZM306,61.65l-.4,0c.09-1,.14-2.09.14-3.14v-.08h.41v.08C306.13,59.53,306.08,60.6,306,61.65Zm-68.34-3.14h-.41v0c0-1,.05-2.1.14-3.14l.41,0c-.1,1-.14,2.07-.14,3.1Zm67.93-3.26c-.1-1-.24-2.09-.44-3.11l.4-.08a30.58,30.58,0,0,1,.44,3.15Zm-67.37-3-.4-.07c.2-1,.44-2.08.73-3.1l.39.11C238.63,50.2,238.39,51.23,238.2,52.25Zm66.21-3.17c-.29-1-.63-2-1-3l.38-.15c.39,1,.73,2,1,3Zm-64.5-2.87-.38-.15c.38-1,.81-2,1.28-2.91l.37.18C240.71,44.27,240.29,45.24,239.91,46.21Zm2.8-5.62-.35-.22c.56-.9,1.16-1.78,1.8-2.62l.32.24C243.85,38.83,243.26,39.7,242.71,40.59ZM298.8,37.9c-.63-.83-1.3-1.65-2-2.42l.3-.27c.71.78,1.4,1.6,2,2.44Zm-52.31-2.33-.3-.27c.71-.79,1.47-1.54,2.25-2.26l.27.3C247.94,34.05,247.19,34.8,246.49,35.57Zm48.07-2.3c-.77-.71-1.59-1.38-2.42-2l.25-.32c.84.63,1.66,1.31,2.45,2Zm-43.44-1.94-.24-.32c.84-.64,1.72-1.25,2.62-1.81l.21.35C252.83,30.1,252,30.7,251.12,31.33Zm38.43-1.84c-.89-.55-1.82-1.07-2.75-1.53l.18-.36c.94.47,1.88,1,2.78,1.54ZM256.46,28l-.19-.36c1-.47,1.93-.91,2.91-1.29l.15.38A30.52,30.52,0,0,0,256.46,28Zm27.46-1.32c-1-.37-2-.71-3-1l.11-.39c1,.29,2,.62,3,1Zm-21.61-1-.11-.39c1-.29,2.05-.53,3.09-.73l.08.4C264.34,25.2,263.31,25.45,262.31,25.73ZM277.87,25c-1-.19-2.07-.33-3.11-.43l0-.4c1.05.09,2.11.24,3.15.43Zm-9.39-.41,0-.41c1.05-.1,2.12-.15,3.18-.15v.41C270.57,24.43,269.52,24.48,268.48,24.58Z" fill="#fff"/><path d="M93.75,187.15v-.69c1.77,0,3.56-.08,5.31-.24l.07.68C97.35,187.06,95.54,187.15,93.75,187.15Zm-5.38-.24c-1.78-.16-3.57-.41-5.33-.74l.13-.67c1.73.32,3.5.56,5.27.72Zm16.09-.75-.13-.67c1.74-.33,3.48-.74,5.18-1.22l.19.66C108,185.42,106.22,185.83,104.46,186.16ZM77.8,185c-1.72-.49-3.44-1.06-5.11-1.71l.25-.64c1.65.64,3.35,1.21,5,1.69Zm37-1.73-.24-.64c1.64-.64,3.28-1.37,4.86-2.15l.31.61C118.13,181.84,116.47,182.57,114.8,183.22Zm-47-2.15c-1.6-.8-3.19-1.68-4.71-2.62l.36-.59c1.51.94,3.07,1.81,4.65,2.59Zm56.66-2.66-.37-.58c1.5-.93,3-1.94,4.39-3l.41.55C127.44,176.45,125.94,177.47,124.43,178.41Zm-65.81-3c-1.43-1.08-2.82-2.24-4.14-3.44l.46-.51c1.31,1.19,2.69,2.33,4.09,3.4ZM133,171.92l-.46-.5c1.31-1.2,2.57-2.46,3.76-3.77l.51.47C135.6,169.44,134.32,170.72,133,171.92Zm-82.33-3.76c-1.21-1.32-2.37-2.71-3.45-4.13l.55-.42c1.07,1.41,2.21,2.78,3.4,4.09ZM140.25,164l-.55-.41c1.07-1.41,2.08-2.89,3-4.39l.59.36C142.35,161.05,141.33,162.55,140.25,164Zm-96.08-4.38c-.94-1.52-1.83-3.1-2.63-4.7l.62-.31c.79,1.58,1.66,3.15,2.6,4.65Zm101.75-4.76-.62-.3c.79-1.59,1.52-3.22,2.16-4.87l.64.25C147.45,151.57,146.72,153.23,145.92,154.83ZM39.36,150c-.65-1.67-1.22-3.38-1.71-5.1l.66-.19c.48,1.7,1,3.39,1.69,5Zm110.45-5.17-.67-.19c.49-1.69.89-3.44,1.22-5.18l.67.13C150.71,141.32,150.29,143.08,149.81,144.8Zm-113.4-5.17c-.32-1.76-.57-3.55-.74-5.33l.68-.07c.17,1.76.41,3.54.74,5.27Zm115.36-5.4-.68-.06c.16-1.76.24-3.55.24-5.32v-.13H152v.13C152,130.64,151.93,132.45,151.77,134.23ZM36.11,128.92h-.69v-.07c0-1.77.08-3.55.24-5.31l.68.06c-.15,1.74-.23,3.5-.23,5.25Zm115-5.52c-.16-1.76-.41-3.53-.74-5.26L151,118c.33,1.75.58,3.55.75,5.33Zm-114-5.07-.67-.12c.32-1.76.73-3.52,1.22-5.24l.66.18C37.79,114.85,37.39,116.59,37.06,118.33ZM149.11,113c-.49-1.7-1.06-3.39-1.7-5l.64-.25c.65,1.67,1.23,3.38,1.72,5.1ZM40,108.11l-.64-.25c.65-1.67,1.38-3.33,2.17-4.93l.62.31C41.31,104.82,40.59,106.46,40,108.11Zm105.3-5c-.8-1.58-1.67-3.14-2.61-4.64l.59-.36c.94,1.51,1.83,3.09,2.63,4.69ZM44.69,98.59l-.59-.36c.94-1.52,2-3,3-4.45l.55.42C46.63,95.61,45.62,97.09,44.69,98.59ZM139.62,94c-1.06-1.41-2.21-2.78-3.41-4.09l.51-.46c1.21,1.32,2.37,2.71,3.45,4.13ZM51.09,90.1l-.51-.46c1.2-1.33,2.48-2.61,3.8-3.82l.46.51C53.54,87.52,52.28,88.79,51.09,90.1Zm81.35-3.9c-1.3-1.19-2.68-2.33-4.09-3.39l.41-.55c1.43,1.07,2.82,2.23,4.15,3.43ZM58.93,82.92l-.41-.54c1.42-1.08,2.91-2.11,4.43-3.06l.36.59C61.81,80.84,60.34,81.86,58.93,82.92Zm65-3.12c-1.5-.93-3.07-1.8-4.65-2.58l.31-.62c1.6.8,3.18,1.68,4.7,2.62ZM68,77.31l-.3-.62c1.6-.8,3.25-1.53,4.92-2.18l.25.64C71.17,75.79,69.54,76.52,68,77.31Zm46.48-2.23c-1.65-.64-3.35-1.2-5.05-1.68l.19-.66c1.72.48,3.44,1.05,5.11,1.7ZM77.86,73.45l-.19-.66c1.72-.49,3.48-.91,5.24-1.24l.12.68C81.3,72.56,79.56,73,77.86,73.45Zm26.34-1.26c-1.73-.32-3.51-.56-5.27-.72l.06-.68c1.79.16,3.58.4,5.34.73Zm-15.9-.7-.06-.68c1.77-.17,3.58-.25,5.38-.26v.69C91.84,71.24,90.06,71.33,88.3,71.49Z" fill="#fff"/><path d="M294.87,217.22v-.69c1.77,0,3.56-.08,5.31-.25l.07.69C298.47,217.13,296.66,217.21,294.87,217.22Zm-5.38-.25c-1.78-.16-3.58-.4-5.33-.73l.13-.68c1.73.33,3.5.57,5.27.73Zm16.09-.74-.13-.68c1.74-.32,3.48-.73,5.18-1.21l.19.66C309.1,215.49,307.34,215.9,305.58,216.23ZM278.92,215c-1.72-.49-3.44-1.06-5.11-1.71l.25-.64c1.65.64,3.35,1.2,5.05,1.68Zm37-1.73-.25-.65c1.65-.63,3.29-1.36,4.87-2.15l.31.62C319.25,211.91,317.59,212.64,315.92,213.29Zm-47-2.15c-1.6-.8-3.19-1.68-4.71-2.62l.36-.59c1.51.93,3.07,1.8,4.65,2.59Zm56.66-2.66-.37-.58c1.5-.93,3-2,4.39-3l.41.54C328.56,206.51,327.06,207.54,325.55,208.48Zm-65.81-3c-1.43-1.07-2.82-2.23-4.14-3.44l.46-.5c1.31,1.19,2.68,2.33,4.09,3.39ZM334.12,202l-.46-.51c1.3-1.19,2.57-2.45,3.76-3.76l.51.46C336.72,199.5,335.44,200.79,334.12,202Zm-82.33-3.76c-1.21-1.32-2.37-2.71-3.45-4.14l.55-.41c1.07,1.41,2.21,2.78,3.4,4.09ZM341.37,194l-.55-.41c1.07-1.41,2.08-2.89,3-4.39l.59.36C343.47,191.12,342.45,192.61,341.37,194Zm-96.08-4.38c-.94-1.52-1.83-3.1-2.63-4.7l.62-.31c.79,1.58,1.66,3.14,2.59,4.64ZM347,184.9l-.62-.31c.79-1.58,1.52-3.22,2.15-4.86l.65.24C348.57,181.64,347.84,183.3,347,184.9ZM240.48,180c-.65-1.67-1.22-3.39-1.71-5.11l.66-.18c.48,1.69,1,3.39,1.69,5Zm110.44-5.17-.66-.19c.49-1.7.89-3.44,1.22-5.18l.67.13C351.83,171.39,351.41,173.15,350.92,174.87Zm-113.39-5.18c-.33-1.75-.58-3.54-.74-5.33l.68-.06c.17,1.76.41,3.53.74,5.27Zm-.3-10.7h-.69v-.07c0-1.77.08-3.56.24-5.31l.68.06c-.16,1.73-.23,3.5-.23,5.25Zm115-5.52c-.16-1.76-.41-3.53-.74-5.27l.68-.12c.33,1.75.58,3.54.75,5.33Zm-114-5.07-.67-.12c.32-1.76.73-3.53,1.22-5.25l.66.19C238.91,144.92,238.5,146.66,238.18,148.4ZM350.23,143c-.49-1.7-1.06-3.4-1.7-5l.64-.25c.65,1.66,1.23,3.38,1.72,5.1Zm-109.16-4.86-.64-.24c.65-1.67,1.38-3.33,2.17-4.93l.62.3C242.43,134.89,241.71,136.53,241.07,138.17Zm105.29-5c-.79-1.58-1.66-3.14-2.6-4.64l.59-.37c.94,1.52,1.83,3.1,2.63,4.7Zm-100.55-4.48-.59-.36c.94-1.52,2-3,3-4.44l.55.41C247.75,125.67,246.73,127.15,245.81,128.65Zm94.93-4.54c-1.07-1.41-2.21-2.79-3.41-4.09l.51-.46c1.21,1.32,2.37,2.71,3.45,4.13Zm-88.53-3.94-.51-.47c1.2-1.32,2.48-2.6,3.8-3.81l.46.51C254.66,117.59,253.4,118.86,252.21,120.17Zm7.84-7.18-.42-.55c1.43-1.08,2.92-2.1,4.44-3l.36.58C262.93,110.91,261.46,111.92,260.05,113Zm65-3.12c-1.5-.93-3.07-1.8-4.65-2.58l.31-.62c1.6.8,3.18,1.68,4.7,2.62Zm-56-2.5-.3-.61c1.6-.8,3.25-1.54,4.92-2.18l.25.64C272.29,105.86,270.65,106.58,269.07,107.37Zm46.48-2.23c-1.65-.63-3.35-1.2-5.05-1.68l.19-.66c1.72.49,3.44,1.06,5.11,1.7ZM279,103.52l-.19-.66c1.72-.49,3.48-.91,5.24-1.24l.12.68C282.42,102.62,280.67,103,279,103.52Zm26.34-1.26c-1.73-.32-3.51-.56-5.27-.72l.06-.68c1.79.16,3.58.4,5.34.72Zm-15.9-.7-.06-.69c1.77-.16,3.58-.25,5.37-.25v.69C293,101.31,291.18,101.4,289.42,101.56Z" fill="#fff"/><path d="M163.85,108.47v-.55c1.4,0,2.82-.06,4.21-.19l.05.54C166.7,108.4,165.27,108.47,163.85,108.47Zm-4.26-.19c-1.42-.13-2.84-.33-4.23-.59l.1-.53c1.37.25,2.78.45,4.18.57Zm12.74-.6-.1-.53c1.38-.26,2.76-.58,4.11-1l.15.53C175.12,107.1,173.73,107.42,172.33,107.68Zm-21.12-1c-1.37-.38-2.73-.84-4.05-1.35l.2-.51c1.3.51,2.65,1,4,1.34Zm29.32-1.37-.2-.51c1.31-.5,2.61-1.08,3.86-1.7l.24.49C183.16,104.26,181.85,104.84,180.53,105.35Zm-37.27-1.7c-1.27-.63-2.53-1.33-3.73-2.08l.28-.46c1.2.74,2.44,1.43,3.69,2Zm44.9-2.11-.29-.46c1.19-.74,2.36-1.54,3.47-2.39l.33.44C190.54,100,189.36,100.8,188.16,101.54ZM136,99.16c-1.13-.85-2.24-1.77-3.29-2.73l.37-.4c1,1,2.13,1.85,3.25,2.7ZM195,96.4l-.36-.4c1-1,2-2,3-3l.4.36C197,94.43,196,95.45,195,96.4Zm-65.25-3c-.95-1-1.87-2.15-2.73-3.28l.44-.33a41.75,41.75,0,0,0,2.7,3.24Zm71-3.32-.44-.33c.85-1.11,1.65-2.28,2.39-3.47l.46.28C202.36,87.79,201.55,89,200.7,90.1Zm-76.14-3.47c-.75-1.21-1.45-2.46-2.09-3.73l.49-.24c.63,1.25,1.32,2.49,2.06,3.68Zm80.63-3.77-.49-.25c.63-1.25,1.2-2.55,1.71-3.85l.5.19C206.4,80.27,205.82,81.59,205.19,82.86ZM120.75,79c-.52-1.32-1-2.68-1.36-4l.52-.15c.38,1.35.84,2.69,1.34,4Zm87.52-4.09-.53-.15c.39-1.35.71-2.73,1-4.11l.53.1C209,72.15,208.66,73.55,208.27,74.91Zm-89.86-4.1c-.26-1.39-.46-2.82-.59-4.23l.54,0c.13,1.4.33,2.8.58,4.18Zm91.42-4.28-.55,0c.13-1.39.19-2.81.19-4.21v-.11H210v.11C210,63.69,210,65.12,209.83,66.53Zm-91.66-4.21h-.55v0c0-1.4.06-2.82.19-4.21l.54,0c-.12,1.37-.18,2.77-.18,4.16ZM209.27,58c-.13-1.4-.32-2.8-.58-4.17l.53-.1c.26,1.39.46,2.81.6,4.22Zm-90.34-4-.54-.1c.26-1.39.58-2.79,1-4.15l.52.15C119.5,51.17,119.18,52.55,118.93,53.93Zm88.79-4.26c-.39-1.34-.84-2.69-1.35-4l.51-.2c.51,1.32,1,2.68,1.36,4Zm-86.5-3.84-.51-.2c.51-1.32,1.09-2.63,1.72-3.9l.49.24A41.45,41.45,0,0,0,121.22,45.83Zm83.44-4c-.63-1.25-1.33-2.49-2.07-3.68l.47-.29c.74,1.21,1.45,2.46,2.08,3.72ZM125,38.28,124.5,38c.75-1.21,1.56-2.39,2.41-3.52l.44.32C126.5,35.92,125.7,37.09,125,38.28Zm75.23-3.6c-.85-1.11-1.76-2.2-2.7-3.24l.4-.36a42.59,42.59,0,0,1,2.73,3.27ZM130,31.56l-.4-.37c1-1.05,2-2.06,3-3l.37.4C132,29.52,131,30.52,130,31.56Zm64.47-3.09c-1-.94-2.13-1.85-3.25-2.69l.33-.44c1.13.86,2.24,1.77,3.29,2.72Zm-58.26-2.6-.33-.43c1.13-.86,2.32-1.67,3.52-2.42l.29.46C138.54,24.22,137.37,25,136.25,25.87Zm51.53-2.47c-1.19-.74-2.43-1.43-3.68-2l.24-.49c1.27.63,2.52,1.33,3.73,2.08Zm-44.38-2-.24-.49c1.27-.63,2.58-1.21,3.9-1.73l.2.51C146,20.22,144.66,20.79,143.4,21.42Zm36.84-1.77c-1.31-.5-2.66-.95-4-1.33l.14-.52c1.37.38,2.73.83,4.05,1.34Zm-29-1.29-.15-.52c1.36-.39,2.76-.72,4.15-1l.11.54C154,17.65,152.6,18,151.25,18.36Zm20.88-1A42,42,0,0,0,168,16.8l.05-.54c1.41.12,2.84.32,4.23.57Zm-12.6-.56-.05-.54c1.41-.13,2.84-.2,4.26-.2v.54C162.34,16.62,160.92,16.68,159.53,16.81Z" fill="#fff"/><path d="M326.89,32.81A39.31,39.31,0,1,0,365.36,73,39.36,39.36,0,0,0,326.89,32.81Zm-.17,69h0a29.65,29.65,0,0,1-30.3-29h0a29.64,29.64,0,0,1,29-30.3h0a29.64,29.64,0,0,1,30.3,29h0A29.65,29.65,0,0,1,326.72,101.76Z" fill="#fff"/><path d="M391.19,62c-.63-1.15-1.72-1.25-4.65-1.48-3.62-.28-7.26-.43-10.88-.79a2.65,2.65,0,0,1-1.83-1.28c-1.72-3.84-3.23-7.78-5-11.61a2.23,2.23,0,0,1,.21-2.78c2.8-3.44,5.5-7,8.23-10.44.45-.57.87-1.15,1.62-2.15L364.48,17.9c-4.07,3.51-7.83,6.65-11.45,9.93-1.27,1.15-2.17,1.44-3.88.61-3.49-1.68-7.22-2.87-10.8-4.37a2.37,2.37,0,0,1-1.24-1.56c-.66-4.45-1.33-8.9-1.72-13.38-.18-2.14-1.09-2.84-3.07-2.77A12.07,12.07,0,0,1,330,6l-10.33.23a6.42,6.42,0,0,1-1.1.36c-4,.5-3.33.18-3.64,3.9-.37,4.53-.66,9.07-.95,13L299,30.29,285.71,19.91a63.25,63.25,0,0,0-13.49,14.37c3.46,4,6.83,7.91,10.22,11.79a1.75,1.75,0,0,1,.39,2.22c-1.74,4-3.39,8-4.85,12.1A2.07,2.07,0,0,1,275.93,62c-4.54.54-9.06,1.18-13.59,1.73-1.12.14-1.7.5-1.87,1.77a56.31,56.31,0,0,0,.67,17c.19,1.12.86,1.26,1.82,1.32,4.42.27,8.84.65,13.27.89a2.21,2.21,0,0,1,2.35,1.73c1.72,4.55,3.71,9,5.75,13.84l-10,12.71a58.85,58.85,0,0,0,14.39,13.79l12.41-10.84c4.47,1.58,8.58,3.16,12.78,4.47a2.83,2.83,0,0,1,2.38,2.82c.42,4.34,1,8.67,1.59,13,.11.86,0,2,1.43,1.94l17.22-.51c1.22,0,1.63-.69,1.7-1.9.25-4.49.7-9,.87-13.46.07-1.74.89-2.27,2.33-2.84a105.14,105.14,0,0,0,10.42-4.73c1.45-.78,2.18-.7,3.38.3,3.87,3.2,7.85,6.25,11.71,9.29,3.54-2,11.46-10.49,13.71-14.61-3.37-3.83-6.74-7.74-10.21-11.54a2.15,2.15,0,0,1-.35-2.74c1.5-3.66,2.74-7.42,4.2-11.09A2.58,2.58,0,0,1,376,82.9c4-.57,8-1,12-1.43,2.24-.25,3.15-.34,3.58-1.19Zm-37,39.55A40.73,40.73,0,1,1,366.75,73,40.39,40.39,0,0,1,354.22,101.51Z" fill="#fff"/><path d="M395.08,163.55c-1.62-.58-3.25-1.1-4.85-1.7a1.25,1.25,0,0,1-.68-.81c-.31-2-.51-3.93-.84-5.89a1.05,1.05,0,0,1,.44-1.24c1.69-1.22,3.36-2.49,5-3.74l1-.77c-1.63-2.65-3.24-5.26-4.9-7.93-2.28,1.09-4.37,2.06-6.42,3.1a1.38,1.38,0,0,1-1.84-.19c-1.39-1.2-2.93-2.2-4.38-3.32a1.1,1.1,0,0,1-.37-.86c.24-2.11.49-4.22.86-6.3.18-1-.14-1.43-1.05-1.64a6.8,6.8,0,0,1-1-.43l-4.72-1.17a3.38,3.38,0,0,1-.55,0c-1.86-.26-1.53-.33-2.13,1.32-.73,2-1.42,4.05-2,5.81L359,139l-4.75-6.35a29.63,29.63,0,0,0-7.9,4.88c1.08,2.24,2.13,4.43,3.2,6.62a.81.81,0,0,1-.1,1.05c-1.28,1.6-2.53,3.23-3.7,4.91a1,1,0,0,1-1.13.48c-2.12-.31-4.26-.58-6.39-.88a.83.83,0,0,0-1.07.57,26.94,26.94,0,0,0-1.78,7.81c0,.53.23.68.66.82,2,.67,3.95,1.39,5.93,2a1.06,1.06,0,0,1,.86,1.08c.22,2.28.58,4.54.91,7l-6.1,4.55a28.2,28.2,0,0,0,4.85,8l7-3.41c1.84,1.27,3.51,2.5,5.26,3.61a1.32,1.32,0,0,1,.74,1.57c-.34,2-.61,4.07-.88,6.11-.05.4-.24.9.41,1.06l7.9,1.89c.56.13.83-.12,1-.66.67-2,1.43-4,2.06-6,.24-.78.68-.93,1.4-1a47.73,47.73,0,0,0,5.33-.87,1.17,1.17,0,0,1,1.5.55c1.36,1.93,2.8,3.81,4.18,5.67a26.68,26.68,0,0,0,8-5c-1.06-2.15-2.11-4.35-3.22-6.5a1,1,0,0,1,.18-1.29c1.13-1.48,2.15-3,3.27-4.53a1.22,1.22,0,0,1,.94-.44c1.88.23,3.76.53,5.64.82,1.05.17,1.47.24,1.77-.1l2.07-8.38C396.87,164.19,396.38,164,395.08,163.55Zm-15.38,1.2A14,14,0,0,1,362.79,175h0a14,14,0,0,1-10.21-16.91h0a14,14,0,0,1,16.91-10.21h0a14,14,0,0,1,10.21,16.91Z" fill="#3382c5"/><path d="M162.69,63l1.57-2.9-1.48-2.94a.45.45,0,0,1,.49-.65l3.23.61,2.33-2.33a.45.45,0,0,1,.77.27l.42,3.27L173,59.85a.45.45,0,0,1,0,.81l-3,1.41-.52,3.26a.46.46,0,0,1-.78.24l-2.26-2.4-3.25.5A.45.45,0,0,1,162.69,63Z" fill="#fbca2d"/><path d="M35.73,108.61l1.57-2.89-1.48-3a.45.45,0,0,1,.49-.65l3.23.61,2.33-2.32a.45.45,0,0,1,.77.26l.42,3.27L46,105.45a.45.45,0,0,1,0,.81l-3,1.41-.52,3.26a.46.46,0,0,1-.78.24l-2.26-2.4-3.25.51A.45.45,0,0,1,35.73,108.61Z" fill="#fbca2d"/><path d="M241.9,42.61v-2l-1.68-1.14a.27.27,0,0,1,.07-.49l1.92-.64.56-2a.28.28,0,0,1,.49-.09l1.2,1.63,2-.07a.28.28,0,0,1,.23.44l-1.17,1.65.69,1.91a.28.28,0,0,1-.35.36l-1.93-.61-1.59,1.24A.28.28,0,0,1,241.9,42.61Z" fill="#f47458"/><path d="M338.64,194.13l1.33-2.51-1.3-2.51a.39.39,0,0,1,.42-.56l2.78.49,2-2a.39.39,0,0,1,.66.22l.39,2.8,2.53,1.26a.39.39,0,0,1,0,.7l-2.54,1.25-.43,2.8a.39.39,0,0,1-.66.21l-2-2-2.8.47A.38.38,0,0,1,338.64,194.13Z" fill="#f47458"/><rect x="102.66" y="76.72" width="223.26" height="143.08" rx="21.92" fill="#5e5e5e"/><rect x="153.74" y="42.71" width="121.05" height="206" rx="11.21" transform="translate(359.97 -68.55) rotate(90)" fill="#fff"/><g opacity="0.2"><rect x="113.65" y="87.77" width="201.38" height="12.98" fill="#3cb4c5"/></g><path d="M214.32,44.52c0-.18-.37-4.19-.42-4.19a28.66,28.66,0,0,0-5.66,1.5s-1.49,11.3,1.12,20.27c.58,2-.48,8.32-.48,8.32l16.86-.23s-2-15.26-1.24-17.73.77-11.05.77-11.05-4.4-1-5.59-1.08c-.39,0-.75,1.39-2.07,2.82a18,18,0,0,1-3,2.18S214.32,45.63,214.32,44.52Z" fill="#fbca2d"/><path d="M211.32,25.21a14,14,0,0,0,1.66-.66,8.25,8.25,0,0,1,1.9-.72,4.57,4.57,0,0,1,3.84,1c1.24,1.34,3.44.24,3,7.28-.09,1.34-1.08,2.55-1.36,3.35-.18.51-.47,1.91-.86,2-3.72,1-3.16,0-3.24-.13S212.73,34,212.73,34s-1.89,3.06-1.84,3.15a29.12,29.12,0,0,1-1.6-3.09,17.28,17.28,0,0,1-.78-1.74,11.12,11.12,0,0,1-.47-1.66A4.58,4.58,0,0,1,211.32,25.21Z"/><path d="M219,37.66c-1,1-2.88,2.36-4.87,3.93L214,39.74l.33-1.39,4.18-2.42Z"/><path d="M219.65,33c-.41-2.88-2.29-5.24-4.74-5.64a3.8,3.8,0,0,0-4.37,3.84,27.92,27.92,0,0,0,.32,3.65" fill="#f7a491"/><path d="M221.13,32.59a.94.94,0,0,0-.46-.74,1.47,1.47,0,0,0-1.16,0,7.08,7.08,0,0,0-1.46-2.82,6.11,6.11,0,0,0-3.14-1.71c-2.34-.37-4.56,2.12-4.76,4.45-.45,5.35,2.26,8.18,4.08,8.12.55,0,1.43,0,3.36-1.73a6.5,6.5,0,0,0,2-2.84,1.77,1.77,0,0,0,1-.92A5.46,5.46,0,0,0,221.13,32.59Z" fill="#fff"/><path d="M214.23,40.27a3.49,3.49,0,0,1-2.44-1.21c-1.52-1.61-2.25-4.26-2-7.29A5.82,5.82,0,0,1,212,27.88a3.91,3.91,0,0,1,3-.87,6.37,6.37,0,0,1,3.34,1.82,7.28,7.28,0,0,1,1.44,2.6,1.84,1.84,0,0,1,1.06.1,1.24,1.24,0,0,1,.66,1h0a4.34,4.34,0,0,1-.6,2,2.29,2.29,0,0,1-1,1.12,7.3,7.3,0,0,1-2,2.82c-2,1.78-2.94,1.8-3.52,1.82Zm.2-12.61a3.34,3.34,0,0,0-2,.78,5,5,0,0,0-1.9,3.39c-.34,4,1.14,6.05,1.8,6.74a2.79,2.79,0,0,0,1.92,1c.56,0,1.38,0,3.14-1.63a6.6,6.6,0,0,0,1.84-2.62.42.42,0,0,1,.3-.32,1.42,1.42,0,0,0,.71-.72,5,5,0,0,0,.57-1.63.61.61,0,0,0-.26-.48,1.07,1.07,0,0,0-.84,0l-.08,0h-.36l-.07-.27a6.72,6.72,0,0,0-1.38-2.67,5.72,5.72,0,0,0-2.94-1.59A2,2,0,0,0,214.43,27.66Z"/><path d="M219.57,32.38s-5.16.65-5.82-.5-.77-2.73-3.79-1.7,3.46-4,3.7-4l3.15,0s2.23,1.84,2.32,2,.72,2.41.72,2.41Z"/><path d="M205.14,44.68c-1.3,2.47-2.92,8.74-2.92,8.74l6.41,2.11.73-1.55-1.12-12.15A7.18,7.18,0,0,0,205.14,44.68Z" fill="#fbca2d"/><path d="M217.87,92.42s-.63,7.21-1.32,8.4,0,3.22.07,3.5,1.45.67,3.69.43,2.2-.75,2-1.59-1.37-1.9-1.44-2.7.68-6.65.68-6.65Z" fill="#fff"/><path d="M219,105.18c-1.43,0-2.64-.26-2.71-.82l-.06-.21c-.18-.71-.62-2.38,0-3.5.47-.83,1-5.4,1.27-8.26l0-.46L222,93.57l0,.28c-.3,2.34-.74,6-.69,6.58a3.45,3.45,0,0,0,.67,1.23,4.37,4.37,0,0,1,.77,1.43,1.49,1.49,0,0,1-.1,1.23c-.31.42-.95.65-2.23.78A12.37,12.37,0,0,1,219,105.18Zm-2-1a7.16,7.16,0,0,0,3.32.23c1-.11,1.57-.28,1.73-.5s.06-.31,0-.67a3.93,3.93,0,0,0-.67-1.18,3.55,3.55,0,0,1-.78-1.57c-.07-.73.49-5.19.65-6.45l-3-1.13c-.16,1.7-.69,7-1.31,8.08-.51.88-.11,2.41,0,3C216.92,104.05,216.94,104.12,217,104.18Z"/><path d="M210.78,66.86s-11.64-.64-14.24.93,1.84,9.3,1.84,9.3,8.11-.37,24,.54c3.76.22,4.08-9.79,3.38-10.62S210.78,66.86,210.78,66.86Z"/><path d="M220.59,105.26a4.1,4.1,0,0,0,1.95-.6,1.45,1.45,0,0,0,.32-1.59,9.59,9.59,0,0,0-1.21-2,7.79,7.79,0,0,1-1.94.81c-1,.31-2.89-.37-3.8-.75a8,8,0,0,0-.17.85c-.14,1,.28,2.86.81,3.11a2.29,2.29,0,0,0,.52.15A12.81,12.81,0,0,0,220.59,105.26Z" fill="#dd513a"/><path d="M218.59,75.15c-.46,3.52-2.33,24-2.33,24l5.63.69s6.57-25.86,6.23-29.36-2.79-3.79-2.79-3.79S219.82,65.84,218.59,75.15Z"/><path d="M225.45,42.72c-1.34-.55-1.34,13.5-2.56,19.46a68.59,68.59,0,0,1-8.87-.09c-.57,0-1.89-.52-2.45-.6a6,6,0,0,0-1.4-.06,27.09,27.09,0,0,0-3.26,1.47c-.31.32-1.14,1.14-1,1.49s1.6-1,1.6-1l.72-.4c-.89.87-2.59,2-2.35,2.43s1.77-.76,2.87-1.55c-.94.85-2.11,2.36-1.84,2.6s1.57-1.54,3-2c.53-.18,1.05.33,1.46.4a3.25,3.25,0,0,0,1.07.06l1.54-.44c.52.05.53.36,1.06.47s1.61.27,2.39.46c4.49,1.09,6,1.6,7.36,1.6C228.93,67,230.23,44.68,225.45,42.72Z" fill="#fff"/><path d="M224.77,67.34a19.32,19.32,0,0,1-4.44-.86c-.82-.21-1.8-.46-3-.75-.46-.12-1-.21-1.5-.29l-.88-.17a1.57,1.57,0,0,1-.65-.3.63.63,0,0,0-.32-.15l-1.46.41a2.5,2.5,0,0,1-1.09,0l-.13,0a2.22,2.22,0,0,1-.59-.22c-.26-.13-.51-.26-.7-.19a7,7,0,0,0-2,1.42c-.6.53-1,.86-1.3.56a.48.48,0,0,1-.16-.36,1.72,1.72,0,0,1,.3-.77,1.42,1.42,0,0,1-.9.24.53.53,0,0,1-.34-.24c-.15-.26-.06-.54.19-.86h-.05l-.14-.23c-.2-.49.33-1.09,1-1.77l.1-.09a21.77,21.77,0,0,1,3.45-1.58,6,6,0,0,1,1.5.07,9.8,9.8,0,0,1,1.17.29,8.76,8.76,0,0,0,1.26.3,71.73,71.73,0,0,0,8.56.12c.49-2.56.78-6.54,1-10.06.46-6.31.73-8.92,1.45-9.36a.51.51,0,0,1,.49,0c3.52,1.44,3.88,12.44,2.57,19.08-.53,2.67-1.54,5.86-3.38,5.86Zm-10.85-3.23H214a1.39,1.39,0,0,1,.72.29.85.85,0,0,0,.38.19l.86.15c.51.09,1.07.19,1.55.31l3,.75a18.72,18.72,0,0,0,4.26.84h0c1,0,2-2,2.7-5.3,1.38-7,.68-16.91-2.06-18.26-.48.7-.81,5.16-1.07,8.77a97.24,97.24,0,0,1-1.11,10.4l0,.26-.26,0a69.31,69.31,0,0,1-8.93-.09,8.31,8.31,0,0,1-1.41-.33,8.24,8.24,0,0,0-1.06-.27,5.06,5.06,0,0,0-1.29-.07l-.4.16-1.36,1.33c-.28.27-.64.57-1,.87s-.72.6-1,.88a20.64,20.64,0,0,0,1.82-1.22l.24-.18.44.54a10.25,10.25,0,0,0-1.11,1.2,6.29,6.29,0,0,1,1.91-1.24,1.62,1.62,0,0,1,1.25.22,1.42,1.42,0,0,0,.38.16l.13,0a2.42,2.42,0,0,0,.79,0Zm-5.78-1.45a6.66,6.66,0,0,0-1,.49l-.08.09c-.15.16-.28.29-.38.41.19-.15.39-.32.59-.5Z"/><path d="M230.33,56.06c.29-6-1.71-13.39-5.06-14.65-1.33-.5-2.87,2.51-2.45,14.77A35.06,35.06,0,0,0,230.33,56.06Z" fill="#fbca2d"/><path d="M201.43,99.5a2.89,2.89,0,0,1,.16,2.5c-.6,1.14-3.79,2.83-4.12,3.45a1.48,1.48,0,0,0-.2,1l9.46-2.32-.73-2.85-.88-2Z" fill="#fff"/><path d="M197,106.92l-.09-.32a1.8,1.8,0,0,1,.23-1.32,6,6,0,0,1,1.65-1.36,9.66,9.66,0,0,0,2.47-2.08,2.55,2.55,0,0,0-.16-2.17l-.28-.5,4.5-.17,1,2.19.83,3.25ZM202,99.83a2.94,2.94,0,0,1-.06,2.34,9.63,9.63,0,0,1-2.69,2.33,8.25,8.25,0,0,0-1.43,1.11,1.5,1.5,0,0,0-.17.45l8.69-2.13-.64-2.51-.77-1.7Z"/><path d="M200.14,102.76s3.87.66,4.92-.18,1-1,1.38-.85.63,1.22.87,2a.69.69,0,0,1-.45.94l-10,2.48c-.75.14-1.25-.33-.74-.93.34-.41.84-1.1,1.08-1.32C198,104.26,200.14,102.76,200.14,102.76Z" fill="#dd513a"/><path d="M202.36,69.62c-.76-1.58-2.47-3.64-5.48-2.4s-3.64,4.09-2.74,7.07c.55,1.8,3.92,13.35,5.74,19.24,1.2,3.86,1,5.87,1.22,6.71l5.51-.12s-.54-16.66-.75-20S203.66,72.36,202.36,69.62Z"/><path d="M194.62,53.48h15.93a1,1,0,0,1,1,.65l4.9,12h8.78a.44.44,0,0,1,.44.44h0a.45.45,0,0,1-.44.45h-25a1.76,1.76,0,0,1-1.59-1l-4.93-11A1,1,0,0,1,194.62,53.48Z" fill="#5e5e5e"/><path d="M203.2,60.47a.92.92,0,0,0,1,.8.93.93,0,0,0,.66-1.14.88.88,0,1,0-1.7.34Z" fill="#fff"/><line x1="209.24" y1="53.48" x2="209.61" y2="48.43" fill="#fff"/><rect x="206.89" y="50.61" width="5.07" height="0.7" transform="translate(143.39 256.13) rotate(-85.83)"/><path d="M224.56,45.33S223,49.76,223.25,52" fill="#fff"/><path d="M222.9,52c-.25-2.25,1.27-6.6,1.33-6.79l.66.23c0,.05-1.52,4.39-1.3,6.48Z"/><path d="M56.65,151.6a2.89,2.89,0,0,0,.32.76c1.22,2.23-.2.41,3,4l1.64-3.69s-.27-1.15-.73-2.8C59.32,150.31,57.82,150.55,56.65,151.6Z" fill="#fff"/><path d="M60,156.74a.37.37,0,0,1-.26-.12c-.71-.8-1.2-1.33-1.53-1.7-.78-.85-.81-.88-1-1.29-.08-.19-.22-.49-.55-1.1a3.25,3.25,0,0,1-.34-.83.35.35,0,0,1,.1-.36,8,8,0,0,1,3.71-1.61l.68-.17a.36.36,0,0,1,.43.24c.45,1.64.73,2.81.73,2.82a.36.36,0,0,1,0,.23l-1.64,3.68a.35.35,0,0,1-.26.2Zm-2.93-5a1.94,1.94,0,0,0,.22.49c.34.63.48.94.57,1.14s.14.31.86,1.11l1.18,1.3,1.37-3.08c-.07-.3-.29-1.18-.61-2.35l-.36.09A7.86,7.86,0,0,0,57.06,151.71Z" fill="#231815"/><path d="M67,148.4s-10.36,3.88-10.65,3.81a30.85,30.85,0,0,1-2.53-11.53c0-2.58,2.66-5.68,5.65-5.07,1.5.31,1.48.73,3.71,4S67,148.4,67,148.4Z" fill="#466eb6"/><path d="M73.8,214l-.21,3.42c-.07.43-.37,1.5-.37,1.89,0,1.48,7-1.25,5.45-1.91-.15-.06-.89-.51-.94-1-.07-.77-.26-2.34-.26-2.34Z" fill="#fff"/><path d="M73.94,220.21a1.27,1.27,0,0,1-.28,0c-.87-.11-.94-.72-.94-.91a7.34,7.34,0,0,1,.25-1.39c.06-.23.11-.45.13-.59s.2-3.36.2-3.36a.51.51,0,0,1,.5-.47h0l3.67.05A.5.5,0,0,1,78,214s.18,1.58.26,2.35c0,.18.43.51.63.6a.76.76,0,0,1,.51.91C79.07,218.92,75.51,220.21,73.94,220.21Zm-.22-1a4,4,0,0,0,1.61-.2,9.43,9.43,0,0,0,2.92-1.28,2,2,0,0,1-1-1.3c0-.52-.14-1.38-.2-1.9l-2.76,0c-.18,3-.18,3-.18,3s-.09.4-.15.66S73.75,218.94,73.72,219.19Z" fill="#231815"/><path d="M78.65,217.36s-1.65.45-2.49.56-2-.84-2.56-.58-.63,2.83-.63,2.83,8.84.73,11.32,0C85.28,219.85,82,218.41,78.65,217.36Z" fill="#13375b"/><path d="M59.44,214s-.2,3.41-.21,3.42c-.07.43-.37,1.5-.37,1.89,0,1.48,7-1.25,5.45-1.91-.15-.06-1.11-.84-1.16-1.34-.07-.78,0-2,0-2Z" fill="#fff"/><path d="M59.58,220.21a1.27,1.27,0,0,1-.28,0c-.87-.11-.94-.72-.94-.91a7.27,7.27,0,0,1,.25-1.38c.06-.24.11-.46.13-.6s.2-3.36.2-3.36a.51.51,0,0,1,.5-.47h0l3.67.05a.49.49,0,0,1,.36.15.54.54,0,0,1,.14.36s0,1.21,0,1.95a2.92,2.92,0,0,0,.88,1,.73.73,0,0,1,.48.89C64.72,218.92,61.16,220.21,59.58,220.21Zm-.21-1A3.93,3.93,0,0,0,61,219a9.49,9.49,0,0,0,2.93-1.29c-.42-.3-1.19-1-1.25-1.63,0-.48,0-1.12,0-1.56l-2.7,0c-.18,3-.18,3-.18,3s-.09.41-.15.67S59.39,218.94,59.37,219.19Z" fill="#231815"/><path d="M64.29,217.36s-1.65.45-2.49.56-2-.84-2.56-.58-.68,2.83-.68,2.83,8.88.85,11.37,0C70.9,219.81,67.66,218.41,64.29,217.36Z" fill="#13375b"/><path d="M62.58,152.62l6.49-9.1.18-.49c.33-.9,1-2.78,1.6-4.65v0c.18-.65.58-1.79,1-2.89s1-2.74,1-3l-.09-.23a20.13,20.13,0,0,1-.67-2.73c-.08-.41-.15-1.4.34-1.4.76,0,.39,1,.75,1.61a16.29,16.29,0,0,0,.52-2.06l.13-1.94c0-.14-.13-1.21.4-1.21h0c.48,0,.47,1.17.67,3.09.06-.22.12-.49.17-.73a8.06,8.06,0,0,1,.16-1c-.09-.54,0-1.38.53-1.3.29,0,.26,1.21.26,1.21,0,.17,0,1.41,0,1.65.06-.41.29-2.19.74-2.19s.4.48.39.86c0,.22-.24,2.15-.25,2.37.17-.29.38-2,.55-2,.72,0,.46,2.42.2,3.05a2,2,0,0,0-.08.33,5.92,5.92,0,0,1-.62,1.8c-.46.78-1.08,2-1.18,2.2-.07.38-.28,1.77-.56,3.51-.11.75-.24,1.56-.38,2.41h0c0,.18-.16.77-.68,2.95a29.09,29.09,0,0,1-.8,3.18c-.31.54-7.31,10-7.6,10.45l-.18.23Z" fill="#fff"/><path d="M65.53,156.93a.34.34,0,0,1-.28-.14l-3-4a.34.34,0,0,1,0-.41l6.46-9c0-.09.08-.24.16-.45.34-.95,1-2.81,1.6-4.63.19-.68.58-1.82,1-2.92.32-.94.85-2.46.94-2.86l-.06-.14a21,21,0,0,1-.69-2.79,2.29,2.29,0,0,1,.19-1.58.63.63,0,0,1,.5-.23.78.78,0,0,1,.79.54c0-.23.1-.46.14-.7l.12-1.9v-.13a1.73,1.73,0,0,1,.27-1.21.67.67,0,0,1,.48-.2c.39,0,.59.27.72.7a1,1,0,0,1,.23-.43.73.73,0,0,1,.66-.22c.13,0,.43.06.53.84a.62.62,0,0,1,.89,0,1.42,1.42,0,0,1,.26,1v0a.7.7,0,0,1,.52.32c.48.73.17,2.7,0,3.21a1.62,1.62,0,0,0-.06.27,6.58,6.58,0,0,1-.66,1.91c-.41.7-1,1.79-1.14,2.13s-.27,1.67-.52,3.25l-.41,2.61a.14.14,0,0,1,0,.07c0,.25-.18.85-.67,2.91a20.07,20.07,0,0,1-.84,3.27c-.32.57-7.32,10.08-7.62,10.48l-.18.24a.34.34,0,0,1-.28.14ZM63,152.61,65.53,156c2-2.69,7.23-9.84,7.47-10.27,0-.07.17-.51.77-3.09.48-2,.65-2.75.67-2.92a.19.19,0,0,1,0-.07l.4-2.55c.26-1.65.46-2.94.53-3.31l0-.1c.14-.28.75-1.47,1.19-2.22a5.54,5.54,0,0,0,.57-1.68,3.21,3.21,0,0,1,.1-.4,5.57,5.57,0,0,0,.23-2.13l-.06.31a4.3,4.3,0,0,1-.29,1.07.35.35,0,0,1-.65-.2c0-.1,0-.52.11-1s.14-1.26.14-1.37a1.76,1.76,0,0,0,0-.41,6.26,6.26,0,0,0-.39,1.74c0,.18-.2.37-.37.33a.32.32,0,0,1-.34-.3c0-.25,0-1.51,0-1.67a4.24,4.24,0,0,0,0-.75,1.26,1.26,0,0,0,0,.77.38.38,0,0,1,0,.15,6.76,6.76,0,0,0-.16.91,7.44,7.44,0,0,1-.18.84.35.35,0,0,1-.37.26.36.36,0,0,1-.32-.32c0-.37-.07-.71-.1-1a5.5,5.5,0,0,0-.29-1.76s0,.2,0,.7v.23l-.13,1.9a14.42,14.42,0,0,1-.53,2.11.38.38,0,0,1-.3.26.36.36,0,0,1-.35-.16,2.28,2.28,0,0,1-.23-.93c-.06-.5-.09-.5-.21-.5a2.32,2.32,0,0,0,0,1,20.68,20.68,0,0,0,.66,2.66l.09.23a.77.77,0,0,1,0,.15,25.94,25.94,0,0,1-1,3.09c-.38,1.1-.77,2.23-1,2.88-.59,1.86-1.27,3.73-1.59,4.63l-.2.55a.36.36,0,0,1,0,.09Z"/><path d="M59.32,115.48a8,8,0,0,0-3.27,3.63c-1,.45-2.11,1.43-2.67,4.06-.68,3.25,1.74,5.75,4.31,6.5s3,2.45,3,2.45l.3-1.83a7.25,7.25,0,0,0-1.43-2.39c-.86-.79.4-2,.51-2.9.09-.73-1.17-2-1.05-3.18A14.39,14.39,0,0,1,62.53,119c.51-.19.8.14.88-.26C63.69,117.24,61.37,114.3,59.32,115.48Z" fill="#231815"/><path d="M67.81,153.73l12.52-2s-1.42-3.59-1.93-3.59S68.93,152,68.93,152l-.71,1.43Z" fill="#fff"/><path d="M67.81,154.08a.37.37,0,0,1-.33-.22.35.35,0,0,1,.13-.42l.33-.23.68-1.36a.3.3,0,0,1,.17-.16c2.71-1.19,9.08-3.94,9.61-3.94.2,0,.74,0,2.25,3.81a.32.32,0,0,1,0,.3.35.35,0,0,1-.24.17l-12.52,2Zm1.38-1.8-.47.95,11.12-1.82a13.71,13.71,0,0,0-1.5-2.95C77.62,148.65,72.45,150.86,69.19,152.28Zm9.11-3.85Z" fill="#231815"/><path d="M61,160.2s-1.37,6.9-.89,11.26a172.24,172.24,0,0,1,.67,18.89c-.23,6.17-2.47,24.26-2.47,24.26l6.55.46s4.46-24.15,4.36-23.51,1-18.1,1-18.1L64,159.65Z" fill="#231815"/><path d="M62.19,159.93s-.77,5.17.2,7.45,9.25,23.35,9.34,25.17.7,23.12.7,23.12l6-.17,1.92-25.13-3.12-25.26L75,158Z" fill="#231815"/><path d="M73.66,147.92s4.74,4.47,6.87,3.71,3-3.37-2.19-7.19C73.67,141,73.66,147.92,73.66,147.92Z" fill="#fff"/><path d="M80,152.06c-2.38,0-6.11-3.45-6.57-3.88a.36.36,0,0,1-.11-.26c0-.15,0-3.65,1.83-4.56.91-.46,2.06-.19,3.41.8,3.6,2.64,4.16,4.56,4,5.71A2.68,2.68,0,0,1,80.65,152,2,2,0,0,1,80,152.06Zm-6-4.29c1.37,1.26,4.87,4.08,6.41,3.53a2,2,0,0,0,1.43-1.53c.11-.78-.22-2.49-3.72-5.05-1.12-.82-2-1.07-2.67-.74C74.34,144.55,74,146.78,74,147.77Z" fill="#231815"/><path d="M76.87,153.44c-.7-3.83-5.8-15.74-6.21-17.93-.2-1.07-3-1.09-5.57-.95-2.77.14-5.52.49-5.52.49a8.46,8.46,0,0,0-3.52,1.42c-1.08,1-1.37,3.8.18,9.1,1.23,4.19,2.74,6.48,3.49,9.53.15,1-.19,1.9,0,3.08a87,87,0,0,1,0,9.47s13.85,2,18.84-2.19C78.5,165.46,77.59,157.36,76.87,153.44Z" fill="#466eb6"/><path d="M80.27,145.21s-5.23,4.32-5.54,4.32-7.47-5.35-9.14-9.74c-.93-2.43,1-5.15,3.24-5.14,1.54,0,2.22.4,5.28,3S80.27,145.21,80.27,145.21Z" fill="#466eb6"/><path d="M88.23,209.42H340.34a0,0,0,0,1,0,0v0A10.38,10.38,0,0,1,330,219.8H98.62a10.38,10.38,0,0,1-10.38-10.38v0a0,0,0,0,1,0,0Z" fill="#5e5e5e"/><path d="M339.91,212.3a9.79,9.79,0,0,0,.43-2.88H88.23a9.8,9.8,0,0,0,.44,2.88Z" fill="#7f7f7f"/><g opacity="0.6"><rect x="123.77" y="105.64" width="1.66" height="94.15" fill="#cae1f9"/></g><rect x="129.46" y="105.64" width="27.5" height="1.98" fill="#466eb6"/><rect x="129.46" y="112.82" width="27.5" height="1.98" fill="#05cd82"/><rect x="129.46" y="171.71" width="27.5" height="1.98" fill="#466eb6"/><rect x="129.46" y="178.89" width="27.5" height="1.98" fill="#05cd82"/><g opacity="0.6"><rect x="129.46" y="191.56" width="27.5" height="1.98" fill="#cae1f9"/></g><g opacity="0.6"><rect x="161.04" y="112.82" width="10.41" height="1.98" fill="#cae1f9"/></g><g opacity="0.6"><rect x="161.04" y="191.56" width="10.41" height="1.98" fill="#cae1f9"/></g><rect x="174.52" y="191.56" width="62.99" height="1.98" fill="#466eb6"/><g opacity="0.6"><rect x="161.04" y="120.01" width="21.59" height="1.98" fill="#cae1f9"/></g><rect x="186.45" y="120.01" width="60.97" height="1.98" fill="#466eb6"/><rect x="250.31" y="120.01" width="51.45" height="1.98" fill="#05cd82"/><rect x="176.33" y="112.82" width="125.43" height="1.98" fill="#fbca2d"/><rect x="129.46" y="120.01" width="27.5" height="1.98" fill="#05cd82"/><g opacity="0.6"><rect x="129.46" y="128.04" width="66.73" height="1.98" fill="#cae1f9"/></g><rect x="129.46" y="135.23" width="92.88" height="1.98" fill="#05cd82"/><g opacity="0.6"><rect x="164.76" y="142.41" width="92.88" height="1.98" fill="#cae1f9"/></g><g opacity="0.6"><rect x="164.76" y="171.71" width="49.53" height="1.98" fill="#cae1f9"/></g><g opacity="0.6"><rect x="164.76" y="179.88" width="83.47" height="1.98" fill="#cae1f9"/></g><rect x="164.76" y="149.59" width="40.35" height="1.98" fill="#466eb6"/><g opacity="0.6"><rect x="209.96" y="149.59" width="24.45" height="1.98" fill="#cae1f9"/></g><g opacity="0.6"><rect x="164.76" y="156.78" width="54.87" height="1.98" fill="#cae1f9"/></g><rect x="164.76" y="163.96" width="85.16" height="1.98" fill="#fbca2d"/><path d="M165.41,34.61l.81-1.32-.65-.26a.28.28,0,0,1-.16-.36h0a.29.29,0,0,1,.37-.16l.75.31.72-1.19-.69-.28a.27.27,0,0,1-.16-.36h0a.28.28,0,0,1,.36-.15l.8.32.84-1.35a.28.28,0,0,1,.34-.12l.12,0a.29.29,0,0,1,.14.41l-.79,1.27,1.16.47.84-1.35a.27.27,0,0,1,.34-.11l.13.05a.28.28,0,0,1,.13.4L170,32.16l.65.27a.28.28,0,0,1,.16.36h0a.28.28,0,0,1-.37.15l-.75-.3L169,33.82l.69.29a.27.27,0,0,1,.16.36h0a.28.28,0,0,1-.36.15l-.8-.32-.86,1.4a.29.29,0,0,1-.34.11l-.14-.06a.28.28,0,0,1-.14-.4L168,34l-1.16-.47L166,35a.28.28,0,0,1-.34.11l-.14-.06A.27.27,0,0,1,165.41,34.61Zm2.93-1.06.73-1.18-1.15-.47-.73,1.19Z" fill="#07345a"/><path d="M394.17,110.73l-.14.06a.27.27,0,0,1-.34-.12l-.86-1.39-1.15.47.81,1.31a.29.29,0,0,1-.14.41l-.14,0a.27.27,0,0,1-.34-.11L391,110l-.79.33a.28.28,0,0,1-.37-.16h0a.28.28,0,0,1,.16-.36l.69-.28-.71-1.19-.75.31a.29.29,0,0,1-.37-.16h0a.29.29,0,0,1,.16-.36l.65-.26-.78-1.28a.27.27,0,0,1,.13-.4l.13-.06a.28.28,0,0,1,.34.11l.84,1.36,1.16-.47-.79-1.28a.28.28,0,0,1,.14-.4l.12,0a.29.29,0,0,1,.34.11l.84,1.35.8-.32a.27.27,0,0,1,.36.16h0a.28.28,0,0,1-.15.36l-.7.28.72,1.18.76-.3a.28.28,0,0,1,.36.15h0a.27.27,0,0,1-.16.36l-.65.27.81,1.31A.28.28,0,0,1,394.17,110.73Zm-1.65-1.93-.73-1.18-1.15.47.73,1.18Z" fill="#f47458"/><path d="M271,55.94l-.14.06a.28.28,0,0,1-.34-.12l-.86-1.39-1.15.46.81,1.32a.27.27,0,0,1-.13.4l-.15.06a.27.27,0,0,1-.34-.11l-.86-1.4-.79.33a.28.28,0,0,1-.36-.16h0a.28.28,0,0,1,.15-.36l.69-.28-.71-1.19-.75.31a.28.28,0,0,1-.36-.16h0a.28.28,0,0,1,.15-.36l.65-.26-.78-1.28a.27.27,0,0,1,.13-.4l.13-.06a.28.28,0,0,1,.34.11l.85,1.36,1.15-.47-.78-1.28a.27.27,0,0,1,.13-.4l.12-.05a.27.27,0,0,1,.34.11l.84,1.35.8-.32a.28.28,0,0,1,.36.15h0a.28.28,0,0,1-.15.37l-.7.28.73,1.18.75-.3a.28.28,0,0,1,.36.15h0A.27.27,0,0,1,271,54l-.65.27.81,1.31A.29.29,0,0,1,271,55.94ZM269.36,54l-.72-1.18-1.16.47.73,1.18Z" fill="#fbca2d"/><polygon points="387.27 138.98 384.62 138.54 384.5 140.32 383.65 140.26 383.83 137.54 386.46 137.98 386.57 135.88 388.98 136.23 389.39 134.09 390.23 134.25 389.67 137.2 387.38 136.86 387.27 138.98" fill="#3c8f7c"/><polygon points="88.7 171.56 91.35 171.12 91.47 172.91 92.32 172.85 92.14 170.13 89.5 170.56 89.4 168.46 86.99 168.81 86.58 166.67 85.74 166.83 86.3 169.78 88.59 169.44 88.7 171.56" fill="#3c8f7c"/><path d="M42.16,220.52h0c0,.42.56.77,1.26.77H357.21c.69,0,1.26-.35,1.26-.77h0c0-.43-.57-.77-1.26-.77H43.42C42.72,219.75,42.16,220.09,42.16,220.52Z" fill="#13375b"/><path d="M38.91,203.42a7.32,7.32,0,0,0,7.32-7.32V160.2H3v14.64H21.24L3,193.09v10.35H13.34l18.25-18.25V196.1a7.32,7.32,0,0,0,7.32,7.32" fill="#fff"/><path d="M322.92,217a1.5,1.5,0,0,0,0-3,1.5,1.5,0,0,0,0,3Z" fill="#5e5e5e"/><path d="M212.35,34.55a.31.31,0,0,1-.31-.31v-.58a.31.31,0,0,1,.31-.31.31.31,0,0,1,.31.31v.58A.31.31,0,0,1,212.35,34.55Z"/><path d="M215.78,34.55a.31.31,0,0,1-.32-.31v-.58a.32.32,0,0,1,.63,0v.58A.31.31,0,0,1,215.78,34.55Z"/><path d="M214.1,36.16a.28.28,0,0,1-.15,0l-.7-.38a.29.29,0,0,1-.13-.4l.51-1.1a.31.31,0,1,1,.56.27l-.39.83.45.24a.31.31,0,0,1,.12.42A.32.32,0,0,1,214.1,36.16Z"/><path d="M214.31,37.79a1.88,1.88,0,0,1-1.4-.6.31.31,0,1,1,.44-.43,1.36,1.36,0,0,0,1.35.36,1.22,1.22,0,0,0,.67-.39.31.31,0,0,1,.44,0,.31.31,0,0,1,0,.44,1.82,1.82,0,0,1-1,.59A2.37,2.37,0,0,1,214.31,37.79Z"/><path d="M218.67,32.91a1.28,1.28,0,0,1,1.81-1.24c.58.25.73,1.22.32,2.16s-1.54,1.5-2.13,1.24" fill="#fff"/><path d="M219,35.45a1.06,1.06,0,0,1-.45-.09.32.32,0,0,1-.17-.41.31.31,0,0,1,.41-.16,1.12,1.12,0,0,0,.86-.16,2,2,0,0,0,.87-.92,2.27,2.27,0,0,0,.19-1.17.76.76,0,0,0-.36-.59,1.1,1.1,0,0,0-1,.09,1,1,0,0,0-.4.87.31.31,0,0,1-.62,0,1.58,1.58,0,0,1,.67-1.39,1.75,1.75,0,0,1,1.57-.14,1.3,1.3,0,0,1,.72,1.07,2.83,2.83,0,0,1-.23,1.51A2.61,2.61,0,0,1,220,35.17,2,2,0,0,1,219,35.45Z"/><path d="M294.39,157.89c2.36-6.83-1.55-17.24-1.76-18.07,0,0-3.71-5.26-6.52-2.17-3.42,3.76.68,9.64.75,9.5,1.59,2.84,3.83,7.59,3.73,8-.17.75-9.55,2.37-9.55,2.37a4,4,0,0,0,1.29,2.3C284.71,158.18,293.34,160.91,294.39,157.89Z" fill="#2ab183"/><path d="M254.55,146.75c0-.37,1.74.42,1.91.1s-1.92-1.26-1.93-1.58c0-.59,2.35.84,2.36.57s-2.43-1.49-2-1.87,2.4,1.52,2.55,1.24-2-1.6-1.83-2.25c.11-.35,3.43,2.71,3.93,2.63s0-2,.39-2.14.66,3.5.87,3.68,5,3.72,6.75,4.64c.38-.56,3-3.48,3.31-4,.85,1,2.48.75,3.39,1.68-1.25,1.76-4.78,7.74-5.38,7.85-1.83.35-8.28-6.69-9.33-7.9s-1.85-1.1-2.64-1.59S254.58,147.12,254.55,146.75Z" fill="#fff"/><path d="M268.71,157.54c-2.37,0-9.33-7.91-9.4-8a3.7,3.7,0,0,0-1.74-1.16,4.2,4.2,0,0,1-.85-.38,5.35,5.35,0,0,0-1.24-.49c-.67-.21-1.15-.37-1.18-.73a.33.33,0,0,1,.11-.28c.18-.16.49-.1,1.07,0l.53.11-.69-.45c-.72-.44-1-.65-1-.92a.39.39,0,0,1,.16-.33c.21-.14.52-.08,1,.13-.56-.4-.9-.69-.92-1a.39.39,0,0,1,.11-.31c.27-.26.71-.08,1.25.26-.42-.41-.71-.81-.59-1.18l0-.12.15-.07c.24-.08.52.11,2,1.24a14.3,14.3,0,0,0,1.94,1.39,3,3,0,0,0,0-.83c0-.61,0-1.14.32-1.28a.33.33,0,0,1,.29,0c.27.16.4.75.65,2.45A10.75,10.75,0,0,0,261,147c.22.17,4.65,3.43,6.48,4.47.29-.38.88-1.07,1.49-1.79s1.51-1.78,1.68-2l.18-.29.22.26a3.16,3.16,0,0,0,1.6.8,3.72,3.72,0,0,1,1.78.87l.14.15-.12.17c-.41.58-1.09,1.66-1.82,2.8-2.41,3.79-3.28,5.07-3.71,5.15Zm-12.66-10.38a5,5,0,0,1,.94.42,4.21,4.21,0,0,0,.75.34,4,4,0,0,1,1.94,1.3c1.78,2.05,7.33,7.83,9,7.83h.11a39.29,39.29,0,0,0,3.39-4.93c.66-1,1.28-2,1.71-2.64a3.83,3.83,0,0,0-1.41-.6,4.18,4.18,0,0,1-1.62-.73c-.31.4-.91,1.1-1.54,1.84s-1.42,1.67-1.59,1.93l-.13.19-.2-.11c-1.71-.91-6.52-4.45-6.79-4.67s-.19-.38-.36-1.56c-.07-.45-.17-1.16-.28-1.64,0,.12,0,.25,0,.35,0,.63,0,1.28-.43,1.36-.29.06-.83-.31-2.36-1.5-.37-.29-.82-.64-1.15-.88.25.28.64.62.85.81.57.5.89.77.74,1.06l-.05.1-.15.06c-.22.06-.49-.12-1.13-.57a8.18,8.18,0,0,0-1.09-.67c.25.22.72.53,1,.73.71.48.94.64.93.88V146l-.12.1c-.18.11-.4,0-1.09-.28-.22-.09-.56-.24-.83-.33l.49.31c.79.48,1.31.8,1.11,1.18C256.58,147.16,256.35,147.2,256.05,147.16Zm.61-1.24Z"/><path d="M273.74,218.72c-.12,1.16-1.77,1.12-3.62.84s-1.38.21-4,.16-3.48-.94-3.59-1.32,1.16-.57,2.52-.85l.51-.11c1.53-.33,2.57-1.43,3.9-2.38s2.11-5,2.11-5l3.71,0s-1.17,3.72-1.78,5a4.42,4.42,0,0,0,.15,2.47A4.93,4.93,0,0,1,273.74,218.72Z" fill="#fff"/><path d="M271.9,220a13,13,0,0,1-1.83-.17,4,4,0,0,0-1.66,0,10.2,10.2,0,0,1-2.28.16c-2.71-.05-3.71-1-3.88-1.53a.41.41,0,0,1,.05-.34c.21-.36,1-.53,2.43-.83l.78-.17a7.29,7.29,0,0,0,2.83-1.6c.31-.25.62-.5,1-.73.95-.68,1.76-3.72,2-4.83a.28.28,0,0,1,.28-.24l3.71,0h0a.3.3,0,0,1,.28.39c-.05.15-1.18,3.75-1.79,5a2.89,2.89,0,0,0,.05,1.74c.05.19.09.38.12.55a5,5,0,0,1,.08,1.3h0a1.15,1.15,0,0,1-.47.86A2.77,2.77,0,0,1,271.9,220Zm-2.74-.85a7.56,7.56,0,0,1,1,.09c1,.16,2.48.31,3-.12a.6.6,0,0,0,.24-.46h0a3.92,3.92,0,0,0-.08-1.13c0-.16-.06-.34-.1-.52a3.31,3.31,0,0,1,0-2.13c.48-1,1.32-3.6,1.64-4.58l-3.06,0c-.22,1-1,4.11-2.18,5-.33.23-.64.48-.94.71a7.48,7.48,0,0,1-3.07,1.72l-.78.17a11.66,11.66,0,0,0-2,.51c.2.3,1.05,1,3.27,1a10,10,0,0,0,2.16-.15A4.24,4.24,0,0,1,269.16,219.18Z" fill="#231815"/><path d="M270.12,219.56c-1.86-.27-1.38.21-4,.16s-3.48-.94-3.59-1.32,1.16-.57,2.52-.85v0a7.39,7.39,0,0,0,3.81.81c1.75-.12,3.56-.79,4.78-.88a4.93,4.93,0,0,1,.08,1.21C273.62,219.88,272,219.84,270.12,219.56Z" fill="#231815"/><path d="M296.3,218.75c-.08,1-1.55,1.06-3.21.87s-1.23.23-3.56.28-3.14-.73-3.26-1.06,1-.55,2.22-.85l.46-.11c1.35-.35,2.25-1.37,3.4-2.27s.2-4.34.2-4.34l2.52-1.19s.34,3.61.53,5.43a22.24,22.24,0,0,0,.58,2.15A4.44,4.44,0,0,1,296.3,218.75Z" fill="#fff"/><path d="M289.34,220.2c-2.3,0-3.19-.79-3.35-1.26a.41.41,0,0,1,0-.34c.18-.34.83-.51,2.16-.84l.7-.17a6.47,6.47,0,0,0,2.46-1.53c.27-.22.54-.46.83-.68.69-.53.42-2.76.09-4a.29.29,0,0,1,.16-.34l2.52-1.19a.3.3,0,0,1,.42.24s.35,3.61.53,5.43a7.07,7.07,0,0,0,.32,1.24,7.11,7.11,0,0,1,.26.88,4.38,4.38,0,0,1,.12,1.17,1.13,1.13,0,0,1-.4.81c-.64.53-1.95.47-3.14.34a3.42,3.42,0,0,0-1.47.05,8.74,8.74,0,0,1-2.05.22Zm-2.73-1.36c.22.27,1,.8,2.91.76a7.84,7.84,0,0,0,1.93-.21,4.11,4.11,0,0,1,1.67-.06c.93.1,2.21.19,2.69-.21a.51.51,0,0,0,.19-.39h0a4.23,4.23,0,0,0-.11-1,6.5,6.5,0,0,0-.24-.81,6.26,6.26,0,0,1-.35-1.37c-.14-1.44-.39-4-.49-5l-1.92.9c.2.88.72,3.59-.36,4.42-.28.22-.55.44-.81.67a6.83,6.83,0,0,1-2.7,1.64l-.7.18A11.6,11.6,0,0,0,286.61,218.84Z" fill="#231815"/><path d="M293.09,219.62c-1.67-.19-1.23.23-3.56.28s-3.14-.73-3.26-1.06,1-.55,2.22-.85l0,0a6.57,6.57,0,0,0,3.43.6c1.56-.16,3.16-.82,4.24-1a4.44,4.44,0,0,1,.12,1.09C296.22,219.79,294.75,219.81,293.09,219.62Z" fill="#231815"/><path d="M290.64,166.76s.7,3.37,1.4,20.5a55.75,55.75,0,0,1,2.23,7.05c.94,3.88,2,20,2,20a4.37,4.37,0,0,1-1.94.7,7.67,7.67,0,0,1-2.18-.12s-6-21.42-9.18-29.65-5.05-20-5.05-20Z" fill="#231815"/><path d="M285.78,168.2s-.51,3.41-5.79,19.72a55.16,55.16,0,0,1-.34,7.39c-.46,4-5.11,19.18-5.11,19.18a7.37,7.37,0,0,1-2.46.35,4.84,4.84,0,0,1-2.42-1s2.7-22.2,2.56-31,2.19-20.48,2.19-20.48Z" fill="#231815"/><path d="M275,125.36s.08,5.68-.88,7.08-3.83,4.05-.83,6.49c.89.72,2.7,5.16,5.23,5.3,1.88.1,11.6-3.39,11.6-3.39l-2-11.41-11.1-5.05Z" fill="#231815"/><path d="M292,139.34c-1.72-2.38-7.58-6.39-7.73-6.39l-1.57.65-.21.7c-3.15,2.37-2.68-.48-2.68-.48s-3.8,2.49-5,3.38c-3,2.1-7,13.51-7.21,13.86-.5.74-6.14-4.66-6.42-4-.68,1.45-1.88,2.68-1.41,3.22.17.2,7.64,8.25,9.14,7.48,1.65-.85,4.3-5.45,5.11-7.4.82,4.32-.62,16.09-.83,18.62,0,0,6.58,1,8.79,1.06a81,81,0,0,0,10.67-.31c-.93-2.84-4.22-14.17-3.77-17.28.16-1.15.79-2.74,1-4.51,0-.16,0-.31.05-.46" fill="#2ab183"/><polygon points="284.47 133.53 281.08 136.09 279.67 134.95 279.14 128.87 284.47 128.87 284.47 133.53" fill="#fff"/><path d="M281.08,136.38a.33.33,0,0,1-.19-.06l-1.4-1.13a.28.28,0,0,1-.11-.21l-.54-6.09a.27.27,0,0,1,.08-.22.29.29,0,0,1,.22-.1h5.33a.29.29,0,0,1,.29.3v4.66a.27.27,0,0,1-.12.24l-3.38,2.55A.32.32,0,0,1,281.08,136.38ZM280,134.8l1.13.91,3.08-2.32v-4.23h-4.71Zm4.51-1.27Z" fill="#231815"/><polygon points="284.47 130.8 279.67 134.95 279.59 134.02 279.19 129.43 284.47 128.87 284.47 130.8" fill="#040000"/><path d="M285.2,126.1c0,4.11-3.53,6.85-5.61,6.85-1.63,0-3.92-.64-3.92-6.85,0-4.1,2.14-5.17,4.76-5.17S285.2,122,285.2,126.1Z" fill="#fff"/><path d="M279.59,133.25c-1.81,0-4.21-.74-4.21-7.15,0-3.68,1.65-5.46,5.05-5.46s5.06,1.78,5.06,5.46C285.49,130.25,282,133.25,279.59,133.25Zm.84-12c-3,0-4.46,1.55-4.46,4.87,0,6.55,2.63,6.55,3.62,6.55,1.82,0,5.31-2.55,5.31-6.55C284.9,122.78,283.48,121.23,280.43,121.23Z" fill="#231815"/><path d="M277.18,127.61a.3.3,0,0,1-.29-.3v-.55a.3.3,0,1,1,.59,0v.55A.3.3,0,0,1,277.18,127.61Z" fill="#231815"/><path d="M280.46,127.61a.3.3,0,0,1-.29-.3v-.55a.3.3,0,1,1,.59,0v.55A.3.3,0,0,1,280.46,127.61Z" fill="#231815"/><path d="M278.86,129.15a.33.33,0,0,1-.14,0l-.67-.37a.28.28,0,0,1-.13-.38l.49-1.05a.3.3,0,0,1,.54.25l-.37.8.42.23a.29.29,0,0,1,.12.4A.3.3,0,0,1,278.86,129.15Z" fill="#231815"/><path d="M280.23,122.45a1.48,1.48,0,0,0,1,2.5c1.56.37.81,1.49,2.3,1.56a2.07,2.07,0,0,1,1.69,1.92c0,1.58-1.14,1.42-1.14,3.74s2.07,2.44,1.92,4.09c-.41,4.34,8.35,2.46,6.31-2.23-1.55-3.54-3.89-1.08-4.78-8.81-.29-2.47.23-7-5.38-6.3a5.47,5.47,0,0,0-6.72,1.61c-4.1,4.75.12,5.33.23,6.53a1.71,1.71,0,0,1,1.08-1.94c1.42-.67.91-3.48,2.94-3" fill="#231815"/><path d="M284.09,127.3a1.23,1.23,0,0,1,1.73-1.19c.57.24.71,1.17.31,2.07a1.91,1.91,0,0,1-2,1.19" fill="#fff"/><path d="M284.41,129.72a1,1,0,0,1-.43-.08.3.3,0,0,1-.16-.39.29.29,0,0,1,.39-.15,1.05,1.05,0,0,0,.83-.16,1.84,1.84,0,0,0,.82-.88,2.07,2.07,0,0,0,.18-1.12.69.69,0,0,0-.34-.56,1.08,1.08,0,0,0-.93.09.91.91,0,0,0-.38.83.3.3,0,0,1-.59,0,1.5,1.5,0,0,1,.64-1.33,1.66,1.66,0,0,1,1.5-.13,1.23,1.23,0,0,1,.69,1,2.67,2.67,0,0,1-.22,1.44,2.51,2.51,0,0,1-1.09,1.17A1.93,1.93,0,0,1,284.41,129.72Z" fill="#231815"/><path d="M279.26,130.78a2.27,2.27,0,0,1-1.53-.65.27.27,0,0,1,0-.42.41.41,0,0,1,.5,0,1.63,1.63,0,0,0,1.46.43,2,2,0,0,0,.85-.46.42.42,0,0,1,.5,0,.26.26,0,0,1,0,.42,2.83,2.83,0,0,1-1.23.65A4,4,0,0,1,279.26,130.78Z" fill="#231815"/><path d="M273.59,148a.31.31,0,0,1-.29-.22,9.39,9.39,0,0,1,1.4-6.66.3.3,0,0,1,.51.31,8.83,8.83,0,0,0-1.33,6.2.3.3,0,0,1-.22.36Z" fill="#231815"/><rect x="275.61" y="147.35" width="12.17" height="15.84" rx="0.6" transform="matrix(0.99, -0.14, 0.14, 0.99, -19.51, 42.41)" fill="#fbca2d"/><path d="M277.88,147.34a.12.12,0,0,1,.1-.13l4.53-.67a.13.13,0,0,1,.14.11l.07.47-4.77.7Z" fill="#231815"/><path d="M279.55,147.12a.72.72,0,1,0,.61-.82A.74.74,0,0,0,279.55,147.12Zm.26,0a.47.47,0,0,1,.92-.14.48.48,0,0,1-.39.53A.47.47,0,0,1,279.81,147.09Z" fill="#231815"/><path d="M277.94,147.22a.13.13,0,0,0-.06.12l.07.48,4.77-.7a.6.6,0,0,1-.5.68l-3.59.52a.6.6,0,0,1-.68-.5l-.07-.48A.13.13,0,0,1,277.94,147.22Z" fill="#231815"/><path d="M294.52,151.06l-3.93.4s.06,3.34,0,3.73c0,0-6.73,1.86-9.55,2.37,0,0-1.28-.73-1.8-1a12.5,12.5,0,0,0-2.21-.52c-.31,0-.21.3.06.41s1,.44,1.14.84a2.16,2.16,0,0,1-.85-.07c-.29-.13-.7-.41-.7-.55s-.08-.49-.17-.47-.06.11-.09.23-.07.23-.1.35-.1.5-.12.63a8,8,0,0,0,.16,1.46c.05.55.2.79.49.93a7.05,7.05,0,0,0,1.69.34,11,11,0,0,0,3.11-.31l9.11-.91s3.4-.49,3.63-1.07S294.52,151.06,294.52,151.06Z" fill="#fff"/><path d="M279.14,160.46l-.62,0a7.39,7.39,0,0,1-1.75-.35,1.21,1.21,0,0,1-.66-1.15c0-.09,0-.24-.06-.41a4.18,4.18,0,0,1-.1-1.11c0-.13.08-.44.13-.65s.05-.21.08-.31c.08-.26.12-.42.3-.46l.11,0,.06,0a.42.42,0,0,1,.43-.18,13.48,13.48,0,0,1,2.29.54c.45.21,1.45.76,1.74.93,2.56-.48,8.22-2,9.26-2.31,0-.57,0-2.38,0-3.52v-.23l4.43-.46v.28a61.4,61.4,0,0,1-.15,6.92c-.25.65-2.76,1.08-3.83,1.23l-9.11.91-.51.09A9.75,9.75,0,0,1,279.14,160.46Zm-2.6-3.48c0,.18-.08.4-.1.51a4.64,4.64,0,0,0,.1.95c0,.18.06.34.07.45,0,.53.2.65.35.72a6.9,6.9,0,0,0,1.61.32,8.09,8.09,0,0,0,2.5-.21c.22,0,.41-.08.55-.09l9.11-.91a9.16,9.16,0,0,0,3.43-.93,57.8,57.8,0,0,0,.12-6.45l-3.44.35c0,.8.05,3.19,0,3.54l0,.16-.15,0c-.06,0-6.77,1.87-9.56,2.37l-.09,0-.08,0s-1.28-.73-1.78-.95a9.59,9.59,0,0,0-1.65-.42,2.1,2.1,0,0,1,1,.81l.15.32-.35,0a1.86,1.86,0,0,1-1.72-.6Zm.39-.29h0a4.27,4.27,0,0,0,.55.33l.15,0a4.84,4.84,0,0,0-.64-.35Z"/><path d="M294.72,158.05c1.32-6-1-19-3.77-15.91a38.58,38.58,0,0,0-4.09,5c1.59,2.84,3.47,6.81,3.37,7.26-.17.76-9,2.28-9,2.28a15.75,15.75,0,0,0,.83,3.39C281.92,160.43,294.29,160,294.72,158.05Z" fill="#2ab183"/><path d="M289.24,151.61a.25.25,0,0,1-.14-.13l-2.38-4.19a.29.29,0,0,1,.12-.4.29.29,0,0,1,.4.11l2.37,4.19a.31.31,0,0,1-.11.41A.3.3,0,0,1,289.24,151.61Z" fill="#231815"/><path d="M63.67,122.92a.32.32,0,0,0,.17-.41l-.23-.53a.32.32,0,0,0-.41-.17.32.32,0,0,0-.16.41l.23.54A.3.3,0,0,0,63.67,122.92Z"/><path d="M65.94,125.59a1.88,1.88,0,0,0,1.06-1.1.31.31,0,0,0-.58-.22,1.33,1.33,0,0,1-1.09.86,1.23,1.23,0,0,1-.78-.1.32.32,0,0,0-.41.15.3.3,0,0,0,.15.41,1.78,1.78,0,0,0,1.16.15A2,2,0,0,0,65.94,125.59Z"/></svg>
