<svg id="Layer_1" data-name="Layer 1" xmlns="http://www.w3.org/2000/svg" viewBox="0 0 133 24"><defs><style>.cls-1{fill:#191313;}</style></defs><title>Artboard 1</title><path class="cls-1" d="M0,5.87V18.12L10.17,24l10.17-5.88V5.87L10.17,0ZM16.76,7.94v8.11l-2,1.16V11.39L10.17,14l-4.6-2.66h0v5.83l-2-1.15V7.94l6.59,3.8Z"/><polygon class="cls-1" points="34.41 11.64 30.89 4.98 28.36 4.98 28.36 17.8 31.06 17.8 31.06 10.53 33.61 15.54 35.28 15.46 37.73 10.49 37.73 17.8 40.45 17.8 40.45 4.98 37.77 5.06 34.41 11.64"/><polygon class="cls-1" points="42.19 17.8 50.29 17.8 50.29 15.37 45.02 15.37 45.02 12.38 49.74 12.38 49.74 9.96 45.02 9.96 45.02 7.43 50.29 7.43 50.29 4.98 42.19 4.98 42.19 17.8"/><path class="cls-1" d="M56.61,10.18c-1.76-.44-2.36-.87-2.36-1.7s.58-1.23,1.62-1.23a2.4,2.4,0,0,1,2.35,1.2l.08.13,2.14-1.53-.07-.12a5,5,0,0,0-4.52-2.11c-2.77,0-4.43,1.37-4.43,3.66,0,2.07,1.22,3.36,3.82,4,2.07.53,2.45,1,2.45,1.75s-.62,1.25-1.8,1.25a3,3,0,0,1-2.61-1.2l-.09-.1L51,15.73l.09.12C52.22,17.31,53.75,18,56.05,18c2.76,0,4.47-1.45,4.47-3.79C60.52,12,59.42,10.88,56.61,10.18Z"/><polygon class="cls-1" points="68.92 9.96 64.86 9.96 64.86 4.98 62.03 4.98 62.03 17.8 64.86 17.8 64.86 12.38 68.92 12.38 68.92 17.8 71.75 17.8 71.75 4.98 68.92 4.98 68.92 9.96"/><polygon class="cls-1" points="88.26 4.98 84.85 5.04 81.15 10.1 81.15 4.98 78.32 4.98 78.32 17.8 81.15 17.8 81.12 14.42 82.48 12.62 85.69 17.8 88.98 17.8 84.26 10.28 88.26 4.98"/><path class="cls-1" d="M94,4.82c-3.19,0-4.94,2-4.94,5.68v1.78C89,15.89,90.82,18,94,18s5-2.07,5-5.68V10.5C98.91,6.83,97.15,4.82,94,4.82Zm2.13,7.46c0,2.22-.68,3.25-2.13,3.25s-2.11-1-2.11-3.25V10.5c0-2.22.67-3.25,2.11-3.25s2.13,1,2.13,3.25Z"/><path class="cls-1" d="M110.09,9c0-2.52-1.76-4-4.83-4h-4.63V17.8h2.83V12.87l1.76-.08,2.38,5h3L108,12.39A3.5,3.5,0,0,0,110.09,9ZM105,10.45h-1.56v-3H105c1.62,0,2.24.43,2.24,1.52S106.65,10.45,105,10.45Z"/><polygon class="cls-1" points="111.75 17.8 119.85 17.8 119.85 15.37 114.58 15.37 114.58 12.38 119.3 12.38 119.3 9.96 114.58 9.96 114.58 7.43 119.85 7.43 119.85 4.98 111.75 4.98 111.75 17.8"/><path class="cls-1" d="M127.59,5h-2.53L120.6,17.8h3l.76-2.38h4l.76,2.38h3Zm-2.43,8,1.22-3.8L127.6,13Z"/></svg>