<svg id="Layer_1" data-name="Layer 1" xmlns="http://www.w3.org/2000/svg" viewBox="0 0 193.95 130.12"><defs><style>.cls-1{opacity:0.5;}.cls-2{fill:#f17474;}.cls-3{fill:#8d9cc9;}.cls-4{fill:#b9c3e1;}.cls-5{fill:#fff;}.cls-6{fill:#676d7e;}</style></defs><title>Artboard 1</title><g class="cls-1"><path class="cls-2" d="M146.14,17.13s-4.12-5.7.15-9c5.39-4.11,8.24-1.42,8.24-1.42S155.16.5,163.08,0s7.76,4.91,7.76,4.91,1.1-4.59,5.54-3.64a5.84,5.84,0,0,1,4.9,4.59s5.07-3.8,8.24.63.16,7.28.16,7.28S194,14.75,194,19a4.43,4.43,0,0,1-3,4.11s2.38,5.07-3,7.45c-5.22,2.37-8.23-1.11-8.23-1.11s-3,5.54-7.44,6.17-7.6-4.11-7.6-4.11-3.8,6-8.55,4.75A5.36,5.36,0,0,1,152,30.43s-5.7-.64-7.28-3.8C141.7,21.25,146.14,17.13,146.14,17.13Z"/><path class="cls-3" d="M27.39,109.59V60.35c0-12.35,13-20.42,13-20.42S68.56,23.78,78.06,19.19,98.16,17.13,108,22s25.65,11.87,31.82,16,6.18,10.61,7,19.63,0,51.93,0,51.93Z"/><path class="cls-4" d="M72.67,109.6S67.29,81.41,51.3,82.2,0,102.63,0,116.56s26.44,16.78,33.41,10.14,18.36-17.1,18.36-17.1Z"/><path class="cls-4" d="M165.93,109.59S157.7,81.09,140.6,82.2,89.45,101,93.1,117.35s28.81,6.81,32,4.91,14.25-12.67,14.25-12.67Z"/><path class="cls-5" d="M73.62,51a37.52,37.52,0,0,0-13.93.48,38.1,38.1,0,0,0-11.87,6L51.3,68s22.8-2,24.54-4.27Z"/><path class="cls-6" d="M52.88,59.88c.48,3.49,1.27,7.13,2.22,7.92s14.72-1.27,15.51-2.53,1-4.44.32-7.92S69.19,51,68.08,50.7s-13.14,1.58-14.25,2.37S52.56,58,52.88,59.88Z"/><path class="cls-6" d="M46.23,58.89a.75.75,0,0,1-.6-.31.74.74,0,0,1,.15-1,42.31,42.31,0,0,1,13.54-6.77c3.53-.94,8.84-1.11,15.79-.51a.75.75,0,0,1-.13,1.5c-6.78-.59-11.91-.44-15.26.45a41,41,0,0,0-13,6.53A.74.74,0,0,1,46.23,58.89Z"/><path class="cls-6" d="M55.28,68.92c-1.83,0-3.65-.07-5.47-.22a.74.74,0,0,1-.68-.81.73.73,0,0,1,.8-.68,66.39,66.39,0,0,0,12.37-.16c5.55-.82,13.61-3.47,14.4-4.34a.74.74,0,0,1,1-.06.73.73,0,0,1,.08,1c-1.2,1.4-10.17,4.09-15.34,4.85A69.5,69.5,0,0,1,55.28,68.92Z"/><circle class="cls-5" cx="156.27" cy="17.92" r="3.8"/><circle class="cls-5" cx="168.3" cy="17.92" r="3.8"/><circle class="cls-2" cx="158.64" cy="44.36" r="3.96"/><circle class="cls-2" cx="150.09" cy="51.8" r="2.69"/><circle class="cls-5" cx="180.18" cy="17.92" r="3.8"/><circle class="cls-5" cx="61.27" cy="60.04" r="3.96"/><circle class="cls-5" cx="65.07" cy="54.18" r="1.9"/><path class="cls-5" d="M87.08,76.82c5.07-1.27,13.46,3.32,10.29,7.44-2.06,2.69-5.7-.16-8.39.63-2.22.64-5.7,5.07-8.08,3.33C77,85.37,80,78.72,87.08,76.82Z"/><path class="cls-6" d="M82.12,89.63A3,3,0,0,1,80.31,89a5.14,5.14,0,0,1-2.06-5.29c.54-2.93,3.4-6.5,8.57-7.88h0c3.86-1,9.43,1,11.46,4.14a4,4,0,0,1-.14,4.88c-1.62,2.12-4,1.61-5.89,1.21a6.7,6.7,0,0,0-3-.23,10.31,10.31,0,0,0-2.37,1.47C85.46,88.38,83.76,89.63,82.12,89.63Zm5.21-11.84c-4.3,1.15-6.71,4.07-7.11,6.3a3.14,3.14,0,0,0,1.27,3.32c.89.65,2.37-.34,4.22-1.7a10.72,10.72,0,0,1,3-1.78,8.16,8.16,0,0,1,4,.19c1.94.42,3.07.6,3.89-.47a2,2,0,0,0,0-2.57C95.06,78.69,90.37,77,87.33,77.79Z"/><path class="cls-5" d="M123.34,45.15A37.55,37.55,0,0,0,109.4,45a37.73,37.73,0,0,0-12,5.54l3,10.6s22.8-1,24.86-3Z"/><path class="cls-6" d="M102.12,53.23c.32,3.48.95,7.12,1.9,8.07s14.89-.47,15.52-1.74,1.11-4.43.79-7.91-1.43-6.34-2.53-6.81S104.5,46,103.39,46.58,102,51.17,102.12,53.23Z"/><path class="cls-6" d="M95.63,51.76a.75.75,0,0,1-.41-1.38,46.49,46.49,0,0,1,13.84-6.11c5.26-1,12.42-.29,15.83.31a.75.75,0,1,1-.26,1.47c-3.08-.53-10.23-1.29-15.24-.31A45,45,0,0,0,96,51.64.78.78,0,0,1,95.63,51.76Z"/><circle class="cls-5" cx="114.47" cy="48.32" r="1.9"/><path class="cls-6" d="M106.88,62.21a67.17,67.17,0,0,1-8-.48.74.74,0,0,1-.65-.83.76.76,0,0,1,.83-.66,66.43,66.43,0,0,0,12.37.32c5.48-.49,13.76-2.85,14.56-3.59A.75.75,0,0,1,127,57a.72.72,0,0,1,0,1c-1.19,1.2-10.32,3.56-15.5,4C110,62.16,108.43,62.21,106.88,62.21Z"/><circle class="cls-5" cx="110.19" cy="54.02" r="3.96"/></g></svg>