<svg id="layer_1" data-name="layer 1" xmlns="http://www.w3.org/2000/svg" viewBox="0 0 254.24 18"><path d="M182.71,6.65A2.59,2.59,0,1,0,183,1.48a1.71,1.71,0,0,0-.32,0H170V16.76h5.17V10.31l6.45,6.45h3.66V13.1l-6.45-6.45Z" fill="#fff"/><path d="M193.81.65a8.47,8.47,0,1,0,8.52,8.47A8.47,8.47,0,0,0,193.81.65Zm0,12.09a3.52,3.52,0,0,1-3.41-3.62,3.42,3.42,0,1,1,6.83-.37,2.29,2.29,0,0,1,0,.37,3.52,3.52,0,0,1-3.42,3.62Z" fill="#fff"/><polygon points="160.23 9.8 156.81 1.48 150.89 1.48 157.8 16.76 162.5 16.76 169.58 1.48 163.66 1.48 160.23 9.8" fill="#fff"/><path d="M211.52.65A8.47,8.47,0,1,0,220,9.12,8.47,8.47,0,0,0,211.52.65Zm0,12.09a3.52,3.52,0,0,1-3.42-3.62h0a3.42,3.42,0,0,1,6.83-.37,2.29,2.29,0,0,1,0,.37A3.52,3.52,0,0,1,211.52,12.74Z" fill="#fff"/><path d="M254.12,7.62H246V11h3.37a3.21,3.21,0,0,1-3,1.72,3.5,3.5,0,0,1-2.58-1.09A3.63,3.63,0,0,1,242.73,9a3.67,3.67,0,0,1,1-2.59,3.25,3.25,0,0,1,2.46-1.08,3.55,3.55,0,0,1,2.45,1l4.18-2.68A8.47,8.47,0,0,0,246.2.61a8.09,8.09,0,0,0-6,2.51,8.2,8.2,0,0,0-2.47,6,8.49,8.49,0,0,0,8.51,8.47h0a8.24,8.24,0,0,0,8-8.47A7.59,7.59,0,0,0,254.12,7.62Z" fill="#fff"/><polygon points="231.69 8.8 225.96 1.48 220.94 1.48 220.94 16.76 226.12 16.76 226.12 9.44 231.85 16.76 236.86 16.76 236.86 1.48 231.69 1.48 231.69 8.8" fill="#fff"/><path d="M106.37,6.3c0-3.17-2.19-4.77-5.45-4.77H94.58V16.67h3.19v-5.6h2.47l3.26,5.6h3.61l-3.65-6A4.29,4.29,0,0,0,106.37,6.3ZM101,8.36H97.75V4.42H101c1.38,0,2.34.59,2.34,2S102.37,8.36,101,8.36Z" fill="#fff"/><polygon points="20.72 10.05 26.95 10.05 26.95 7.11 20.72 7.11 20.72 4.5 28.2 4.5 28.2 1.53 17.69 1.53 17.69 16.67 28.52 16.67 28.52 13.71 20.72 13.71 20.72 10.05" fill="#fff"/><polygon points="53.94 7.33 47.73 7.33 47.73 1.53 44.71 1.53 44.71 16.67 47.73 16.67 47.73 10.31 53.94 10.31 53.94 16.67 56.97 16.67 56.97 1.53 53.94 1.53 53.94 7.33" fill="#fff"/><path d="M85.36,1.17c-4,0-6.81,3-6.81,8S81.3,17,85.32,17s6.78-3,6.78-7.94S89.36,1.17,85.36,1.17Zm0,12.8c-2.15,0-3.65-1.78-3.65-4.89s1.43-4.85,3.58-4.85S88.94,6,88.94,9.12,87.51,14,85.36,14Z" fill="#fff"/><polygon points="112.64 10.05 118.87 10.05 118.87 7.11 112.64 7.11 112.64 4.5 120.12 4.5 120.12 1.53 109.61 1.53 109.61 16.67 120.45 16.67 120.45 13.71 112.64 13.71 112.64 10.05" fill="#fff"/><path d="M130.53,1.53h-2.94L121.8,16.67H125l1.19-3.37h5.54L133,16.67h3.33Zm-3.26,8.89,1-2.75c.31-.88.61-1.79.76-2.35.15.56.45,1.47.76,2.35l1,2.75Z" fill="#fff"/><path d="M7.35,8.18,3.2,1.53H.25V16.67h3V7.09h0c.75,1.05,1.3,2.16,2,3.22L7,13h.54L9.3,10.3c.69-1.06,1.43-2.17,2.08-3.24h0v9.58h3V1.53H11.5Z" fill="#fff"/><path d="M37.13,7.5c-2.36-.55-3-1.15-3-2.09,0-.66.54-1.34,2.13-1.34A4.56,4.56,0,0,1,39.65,5.6L41.8,3.52a7.16,7.16,0,0,0-5.43-2.35C33.43,1.17,31,2.83,31,5.54c0,2.94,1.92,4.11,4.67,4.75S39,11.53,39,12.49c0,1.13-.83,1.62-2.6,1.62a4.81,4.81,0,0,1-3.81-1.71l-2.15,1.92A6.93,6.93,0,0,0,36.26,17c4.06,0,5.85-1.91,5.85-4.74C42.11,9,39.49,8.05,37.13,7.5Z" fill="#fff"/><polygon points="78.14 1.53 74.1 1.53 69.07 7.89 69.07 1.53 66.04 1.53 66.04 16.65 69.07 16.65 69.07 9.82 74.48 16.65 74.48 16.65 78.49 16.65 72.23 8.74 78.14 1.53" fill="#fff"/></svg>