<svg id="Layer_1" data-name="Layer 1" xmlns="http://www.w3.org/2000/svg" viewBox="0 0 24 24"><defs><style>.cls-1{fill:#191313;}</style></defs><title>Artboard 3</title><path class="cls-1" d="M7.89,21A12.84,12.84,0,0,0,20.82,8.07c0-.2,0-.39,0-.59a9.18,9.18,0,0,0,2.26-2.35,9.08,9.08,0,0,1-2.61.71,4.54,4.54,0,0,0,2-2.51,9.05,9.05,0,0,1-2.88,1.1,4.55,4.55,0,0,0-7.86,3.11,5.1,5.1,0,0,0,.11,1A12.9,12.9,0,0,1,2.47,3.83,4.54,4.54,0,0,0,3.87,9.9a4.59,4.59,0,0,1-2-.57v.06a4.54,4.54,0,0,0,3.64,4.45,4.7,4.7,0,0,1-1.2.16,4.8,4.8,0,0,1-.85-.08,4.54,4.54,0,0,0,4.24,3.15A9.09,9.09,0,0,1,2,19,9.51,9.51,0,0,1,.93,19a12.82,12.82,0,0,0,7,2"/></svg>